<svg width="290" height="36" viewBox="0 0 290 36" xmlns="http://www.w3.org/2000/svg"><path d="M110.064 15.035l3.81 9.562h-11.1l3.834-9.562c.336-.823.715-1.924 1.135-3.304l.557-1.867c.032.201.242.858.629 1.967.404 1.312.783 2.381 1.135 3.204zM108.097.05h.631l15.388 35.495h-5.675l-2.6-6.408h-14.935l-2.573 6.408h-5.27L108.096.05zm30.434 19.225L146.326.402h5.323l-14.985 35.496h-.68L120.593.402h5.827l7.922 18.873c.437.957.915 2.286 1.438 3.985.455 1.446.681 2.202.681 2.27 0-.101.202-.84.605-2.22.522-1.698 1.009-3.044 1.464-4.035zm-67.663.402L87.518.05h.556v35.496H82.85v-18.24c0-.79.034-1.858.1-3.204l.103-1.816-1.086 1.563c-.79 1.128-1.472 2.003-2.043 2.624L71.07 27.119h-.604l-8.832-10.646c-.555-.621-1.21-1.48-1.967-2.573l-1.135-1.614.1 1.816c.068 1.346.102 2.413.102 3.204v18.24h-5.223V.05h.581l16.776 19.627zm85.862 15.869V.403h5.423v35.143h-5.423zM280.385 20.51l8.829 15.036h-2.523l-8.527-14.634-1.162.103-8.5.024v14.507h-2.12V.403h9.41c3.768 0 6.72.875 8.856 2.625 2.219 1.798 3.328 4.371 3.328 7.72 0 5.128-2.531 8.383-7.591 9.762zm-4.795-1.338c6.81 0 10.217-2.807 10.217-8.424 0-5.652-3.406-8.477-10.217-8.477h-7.089v16.901h7.09zm-21.143 16.374V.403h2.119v35.143h-2.119zM233.272 0h.631l14.252 35.546h-2.169l-3.758-9.41h-17.333l-3.706 9.41h-2.121L233.272 0zm1.338 7.039a30.795 30.795 0 0 1-.683-2.019 4.428 4.428 0 0 0-.126-.454l-.227-.731-.352 1.185a36.502 36.502 0 0 1-.657 1.943l-6.887 17.33h15.819L234.61 7.039zm-41.59 22.553c1.63-.925 3.044-2.263 4.238-4.011l4.19 2.926C198.182 33.503 193.33 36 186.89 36c-5.063 0-9.318-1.682-12.767-5.046-3.514-3.447-5.272-7.77-5.272-12.967 0-5.18 1.758-9.486 5.272-12.916C177.573 1.69 181.828 0 186.891 0c6.256 0 10.94 2.321 14.052 6.963l-4.19 3.002c-2.169-3.365-5.457-5.047-9.862-5.047-3.617 0-6.603 1.238-8.956 3.71-2.339 2.472-3.508 5.592-3.508 9.359 0 3.75 1.17 6.863 3.508 9.334 2.353 2.523 5.339 3.785 8.956 3.785 2.337 0 4.38-.505 6.13-1.514zM7.772 8.51l3.124 1.21a36.112 36.112 0 0 1-2.774 4.451v21.712h-3.28V18.311a38.551 38.551 0 0 1-3.046 3.124C1.484 20.694.546 18.819 0 17.921c2.852-2.344 5.858-5.896 7.772-9.41zm2.343-7.263c-2.03 3.28-5.076 6.833-7.928 9.138C1.797 9.642.9 8.275.313 7.61 2.733 5.658 5.467 2.575 6.835.036l3.28 1.211zm15.698 34.677V3.043h10.153v23.586c0 1.444-.196 2.5-1.093 3.084-.9.625-2.03.703-3.945.665-.038-.859-.507-2.42-.937-3.28h2.305c.312 0 .468-.118.468-.547V6.245h-3.71v29.679h-3.24zm-5.663-6.68l4.92-.702.118 3.046a787.985 787.985 0 0 1-14.995 2.305l-.78-3.28 2.03-.235V18.701h2.85v11.285l2.655-.35V16.123h-6.326v-3.28h6.326V7.377h-2.89a20.812 20.812 0 0 1-1.99 3.084c-.547-.507-1.913-1.522-2.656-1.913 1.835-2.109 3.28-5.35 4.1-8.513l3.164.703a34.332 34.332 0 0 1-1.134 3.399h8.903v3.24H20.15v5.467h4.57v3.28h-4.57v4.14h4.336v3.085H20.15v5.896z" fill="#FFF" fill-rule="evenodd"/></svg>