<svg xmlns="http://www.w3.org/2000/svg" viewBox="0 0 221 28"><path fill="#fff" fill-opacity="0" d="M0-6h221v40H0z"/><path d="M72.4 27.4h4.2v-9.9h4.8l5.8 9.9H92l-6.3-10.6c3.6-1.3 5.4-3.8 5.4-7.6 0-2.8-.9-5-2.8-6.4-1.7-1.4-4-2-6.9-2h-8.9l-.1 26.6zM76.6 14V4.3h4.6c3.7 0 5.6 1.6 5.6 4.8s-1.9 4.8-5.6 4.8l-4.6.1zm31.8 13.7c3.8 0 7.1-1.3 9.7-3.8 2.7-2.6 4-5.9 4-9.8 0-4-1.3-7.2-4-9.8-2.6-2.6-5.9-3.9-9.7-3.9-3.9 0-7.1 1.3-9.8 3.9-2.7 2.6-4 5.9-4 9.8s1.3 7.2 4 9.8c2.7 2.5 6 3.8 9.8 3.8zm0-3.7c-2.8 0-5.1-1-6.9-2.9s-2.7-4.2-2.7-7.1.9-5.2 2.7-7.1c1.8-1.9 4.1-2.9 6.9-2.9s5 1 6.8 2.9 2.7 4.2 2.7 7.1c0 2.8-.9 5.2-2.7 7.1-1.7 1.9-4 2.9-6.8 2.9zm39.5 3.6h.5V.6h-3.9v14.7c0 .6.1 1.5.2 2.5v1.4l-.9-1.1c-.7-.8-1.2-1.4-1.6-1.9L127.7.4h-.6v27h3.9V12.7c0-.7 0-1.5-.1-2.5l-.2-1.3.9 1.1c.7.8 1.2 1.4 1.6 1.9l14.7 15.7zm7-.2h4.1V.7h-4.1v26.7zm31.3.2h.5V.6h-3.9v14.7c0 .6.1 1.5.2 2.5v1.4l-.9-1.1c-.7-.8-1.2-1.4-1.6-1.9L165.9.4h-.6v27h3.9V12.7c0-.7 0-1.5-.1-2.5l-.1-1.4.9 1.1c.7.8 1.2 1.4 1.6 1.9l14.7 15.8zm5.8-7.7h8.3v-3.6H192v3.6zm20.3 7.8c-2.4 0-4.4-.5-6.2-1.6-1.5-.9-2.6-2.2-3.4-3.9l3.4-1.9c.7 1.2 1.5 2.1 2.3 2.6 1 .7 2.3 1.1 3.8 1.1 3.1 0 4.6-1.2 4.6-3.7 0-1.1-.4-2-1.1-2.7-.6-.6-1.7-1.2-3.3-1.9l-1.8-.8c-2.1-.9-3.7-2-4.6-3-1.1-1.3-1.6-2.8-1.6-4.8s.7-3.6 2.1-4.9c1.4-1.3 3.2-1.9 5.4-1.9 3.5 0 6 1.4 7.5 4.2l-3.3 2c-1-1.7-2.4-2.6-4.3-2.6-2.3 0-3.4 1-3.4 3.1 0 1.6 1.3 3 3.9 4.1l1.7.8c2.4 1.1 4.2 2.2 5.2 3.3 1.2 1.3 1.8 3 1.8 5.1 0 2.3-.8 4.1-2.4 5.5-1.7 1.3-3.8 1.9-6.3 1.9zM11.7 5.9l1.8.3C13 12.1 12 16.6 10.2 20c1.3 1.1 2.4 2.2 3.2 3.1l-1.9 2.4c-.7-.9-1.7-1.9-2.8-2.9-1.8 2.4-4.1 4.2-7 5.5-.4-.8-1.1-1.8-1.7-2.4 2.7-1 4.8-2.6 6.6-5-1.7-1.5-3.5-2.9-5.1-4.2h-.1c.7-2 1.4-4.8 2-7.7H.1V6H4c.4-2.1.7-4.1.9-6l2.8.2C7.4 2 7.1 4 6.7 6h4.5l.5-.1zm-1.2 2.7H6.2c-.5 2.4-1.1 4.8-1.7 6.8 1.1.8 2.3 1.8 3.5 2.7 1.2-2.5 2.1-5.6 2.5-9.5zm4.3-5.5h12v23.6H24v-1.8h-6.5v2.3h-2.7V3.1zm2.6 19.1H24V5.8h-6.5v16.4h-.1zM54.9.5l2.7 1.1c-2.1 2.8-5.2 5.5-8 7.2-.5-.6-1.3-1.4-2-2 2.6-1.4 5.7-3.9 7.3-6.3zm.9 8.2l2.6 1.1c-2.2 3-5.6 5.8-8.8 7.6-.5-.6-1.3-1.5-2-2 3-1.6 6.4-4.1 8.2-6.7zM48 11.1v2.2H31.5v-2.2h6.9l-.6-1.2 2.4-.5h-7.4V1h14v8.4h-6.4c.3.5.7 1.1.9 1.7H48zM35.6 7.6h8.5V6h-8.5v1.6zm0-3.3h8.5V2.8h-8.5v1.5zm-1.3 16.8l2.4.7c-.8 1.8-2.1 3.8-3.2 5.1-.5-.4-1.4-1.2-2-1.5 1.1-1.2 2.1-2.8 2.8-4.3zm12.2-.5h-5.4v4.5c0 1.2-.2 1.9-1.1 2.2-.9.4-2 .4-3.7.4-.1-.7-.5-1.7-.9-2.3h2.4c.3 0 .4-.1.4-.4v-4.5h-5.1v-6h13.3l.1 6.1zm-10.6-1.9h7.9v-2.1h-7.9v2.1zm20.5-1.4l2.7 1c-2.3 4-6.1 7.3-10.2 9.5-.4-.7-1.2-1.6-1.9-2.1l-2 1c-.5-1.3-1.6-3.2-2.6-4.7l2-.9c1 1.4 2.1 3.2 2.7 4.4 3.6-1.8 7.3-4.8 9.3-8.2z" fill="#303233"/></svg>