<svg xmlns="http://www.w3.org/2000/svg" xmlns:xlink="http://www.w3.org/1999/xlink" width="742" height="45" viewBox="0 0 742 45"><defs><path id="a" d="M0 40.5386586V0h.5837418l18.3554356 23.7933378L37.294613 0h.5837417v40.5386586h-2.3071698V8.7175246l.1181382-3.480615c0 .0388257-.23396.4225155-.70188 1.1510695-.5628938.863302-1.0701932 1.5827205-1.5172653 2.1582553L19.1708209 27.045566h-.6416526L4.4359742 8.5462344c-.4285406-.536709-.9242579-1.246992-1.4894681-2.130849-.4864515-.7650957-.7296772-1.160205-.7296772-1.1784759l.1181382 3.480615v31.8211341H0zM67.4129085 41c-5.8559492 0-10.7575269-1.8887589-14.7070496-5.6685606-4.0676608-3.8939951-6.0991749-8.8317179-6.0991749-14.8177362 0-6.0020053 2.0315141-10.9511475 6.0991749-14.8451426C56.6553816 1.888759 61.5569593 0 67.4129085 0c5.8351013 0 10.7389954 1.888759 14.7070496 5.6685606 4.0468129 3.8939951 6.0690612 8.8431373 6.0690612 14.8451426 0 5.9860183-2.0222483 10.9237411-6.0690612 14.8177362C78.1519039 39.1112411 73.2480098 41 67.4129085 41zm0-2.1582553c5.232828 0 9.5807776-1.7448753 13.0438488-5.2369096 3.4816027-3.4897504 5.2235623-7.8542224 5.2235623-13.0911319 0-5.2551805-1.7419596-9.6173685-5.2235623-13.0911319-3.4630712-3.4897504-7.8110208-5.2346257-13.0438488-5.2346257S57.8205487 3.932821 54.338946 7.4225713c-3.4816026 3.4737634-5.2235622 7.8359514-5.2235622 13.0911319 0 5.2369095 1.7419596 9.6013815 5.2235622 13.0911319 3.4816027 3.4920343 7.8411345 5.2369096 13.0739625 5.2369096zm29.4835922 1.6969139V.4613414h12.4902203c3.715563 0 6.564779.96836 8.549964 2.9050802 1.827668 1.76543 2.74266 4.1155303 2.74266 7.0480169 0 4.4900847-1.918009 7.4043004-5.749393 8.7472148 5.311587 1.0757019 7.966222 4.4878008 7.966222 10.2431484 0 3.393828-.961321 6.0522504-2.888595 7.9706996-2.119539 2.1080103-5.262942 3.1631573-9.425577 3.1631573H96.8965007zm2.4507888-2.128565h10.9428415c3.599741 0 6.235845-.8336119 7.908311-2.5031194 1.498734-1.4959336 2.246943-3.6633245 2.246943-6.5021725 0-6.0042892-3.442223-9.0052919-10.331303-9.0052919H99.3472895v18.0105838zm0-20.1391489H110.23222c2.78204 0 4.843667-.7491087 6.1872-2.2450423 1.204546-1.3223596 1.809136-3.1928476 1.809136-5.6114639 0-2.3775067-.681032-4.2274398-2.043096-5.5520833-1.556645-1.5142046-3.900878-2.2724488-7.032699-2.2724488h-9.8054715v15.6810383zM132.19203 40.5386586V.4590575h2.450789v40.0796011h-2.450789zm13.805956 0V.4613414h2.450789v37.9487522h19.550716v2.128565h-22.001505zm29.057368 0V.4613414h23.724933v2.128565h-21.274144v16.7453209h19.057315v2.0988747h-19.057315v16.9759916h22.119643v2.128565h-24.570432z"/><path id="b" d="M20.7163933 41c-5.820625 0-10.7172686-1.9131208-14.694505-5.7393623C2.0080583 31.3410177 0 26.4261193 0 20.5136651 0 14.5852683 2.0080584 9.6680924 6.0218882 5.7666926 9.9991247 1.9222309 14.8957683 0 20.7163933 0c5.7817445 0 10.6600915 1.9222309 14.637328 5.7666926 4.0138298 3.9013998 6.0218882 8.8185757 6.0218882 14.7469725 0 5.9124542-2.0080584 10.8273526-6.0218882 14.7469726C31.3764848 39.0868792 26.4981378 41 20.7163933 41zm0-5.5639929c4.1670643 0 7.5862526-1.4371181 10.257565-4.3067992 2.6690253-2.808188 4.0046815-6.349739 4.0046815-10.6155428 0-4.2840239-1.3356562-7.8324075-4.0046815-10.642873-2.6713124-2.8696811-6.0905007-4.3045217-10.257565-4.3045217-4.1693514 0-7.6159847 1.4348406-10.3444742 4.3045217-2.6690252 2.8104655-4.0046814 6.3588491-4.0046814 10.642873 0 4.2658038 1.3356562 7.8073548 4.0046814 10.6155428 2.7284895 2.8696811 6.1751228 4.3067992 10.3444742 4.3067992zM59.2720301 41c-3.5930066 0-6.6851422-.8199089-9.2786937-2.4665593-2.2482021-1.3961226-3.9749494-3.3297411-5.1871031-5.7963004l5.129926-2.8400733c1.1138092 1.8174647 2.2756471 3.1361515 3.4855137 3.958338 1.5757999 1.0909343 3.4878008 1.6352627 5.7337159 1.6352627 4.6290549 0 6.9435824-1.8265748 6.9435824-5.4797245 0-1.6056549-.5671964-2.9539495-1.6993023-4.0448839-.942278-.8609043-2.6118482-1.8151872-5.0132848-2.8674036l-2.6507286-1.1774803c-3.188193-1.4166204-5.4935722-2.9266192-6.9161375-4.5345517-1.6512736-1.8721253-2.4769104-4.2658038-2.4769104-7.1719253 0-2.9630597 1.0474838-5.395456 3.1401643-7.2880791C52.5960362 1.0134985 55.3039419.056938 58.6087761.056938c5.2053998 0 8.9790859 2.0953228 11.3233455 6.2836907L65.0331909 9.353794c-1.4797424-2.6009332-3.6204516-3.9013998-6.4244148-3.9013998-3.4580687 0-5.1871031 1.5487168-5.1871031 4.6484279 0 2.3891235 1.9302977 4.4275081 5.7908929 6.1105989l2.5935516 1.1752027c3.6501836 1.6079325 6.2620319 3.2705255 7.8378317 4.9923342 1.7656277 2.0087768 2.6507286 4.5345517 2.6507286 7.5750472 0 3.4231197-1.221302 6.1515943-3.659332 8.1763138C66.2339092 40.0434396 63.1120416 41 59.2720301 41zm20.0805843-.5169981V.1138762h.6632539l19.1611772 22.3242973L118.191849.1138762h.633522V40.483002h-5.964711V19.7393067c0-.8973447.038881-2.1135429.116641-3.6440395l.114354-2.0657149-1.237311 1.7787468c-.903398 1.2822464-1.681006 2.2775247-2.335111 2.9835574L99.4057538 30.9014554h-.6906989L88.6313081 18.7918565c-.6335218-.7060327-1.3836849-1.6830908-2.2482021-2.9266193l-1.2967758-1.8356849.1166412 2.0657149c.0754738 1.5304966.1143542 2.7466948.1143542 3.6440395v20.7436952h-5.9647112zM147.029673 41c-5.818338 0-10.717269-1.9131208-14.694505-5.7393623-4.01383-3.91962-6.019602-8.8345184-6.019602-14.7469726 0-5.9283968 2.005772-10.8455727 6.019602-14.7469725C136.312404 1.9222309 141.211335 0 147.029673 0c5.781744 0 10.660091 1.9222309 14.637328 5.7666926 4.013829 3.9013998 6.021888 8.8185757 6.021888 14.7469725 0 5.9124542-2.008059 10.8273526-6.021888 14.7469726C157.689764 39.0868792 152.811417 41 147.029673 41zm0-5.5639929c4.169351 0 7.588539-1.4371181 10.257565-4.3067992 2.669025-2.808188 4.004681-6.349739 4.004681-10.6155428 0-4.2840239-1.335656-7.8324075-4.004681-10.642873-2.669026-2.8696811-6.088214-4.3045217-10.257565-4.3045217-4.167065 0-7.615985 1.4348406-10.342187 4.3045217-2.671313 2.8104655-4.004682 6.3588491-4.004682 10.642873 0 4.2658038 1.333369 7.8073548 4.004682 10.6155428 2.726202 2.8696811 6.175122 4.3067992 10.342187 4.3067992z"/><path id="c" d="M42.2618406 24.5783677v2.227111H22.2693479v12.2648969c0 2.0352443-.7110607 2.7929963-2.1843199 3.1718724-1.470824.4274498-4.3686397.4760237-9.4970428.4274498-.1899409-.663033-.6160902-1.6102231-.995972-2.2732561 4.2249666.094719 7.8825456.094719 8.9272203.0485738 1.0446747-.0485738 1.4245565-.3813047 1.4245565-1.3746399V26.8054787H0v-2.227111h19.94379v-8.9521604H3.0853214v-2.1785372H19.94379V5.1609715c-5.4133145.5197402-11.0165697.94719-16.0987052 1.1852019-.0925353-.6168879-.3798817-1.469359-.6160902-1.9890991 11.2065105-.616888 25.4520748-1.848235 32.3362132-4.2162101l1.8068733 1.848235c-3.8937875 1.1827732-9.3095371 2.178537-15.1027332 2.8877153V13.44767H39.697639v2.1785372H22.2693479v8.9521604h19.9924927zm22.9828437-1.6563683l-1.5682297 2.1299633c-.9959719-1.7996611-3.7501143-5.8725783-5.6982257-8.6194295v26.4266026h-2.2305875V16.9547021c-1.994379 6.1081615-4.8921946 12.405761-7.7413074 15.9589381-.331179-.663033-.9497043-1.4693589-1.4245565-1.9405253 3.3726678-4.2162101 7.0765145-12.3620446 8.7859822-19.4198249h-8.0237836V9.3286077h8.4036653V0h2.2305875v9.3286077h7.3614258V11.55329h-7.3614258v1.753516c1.6144973 1.9405253 6.2680483 8.1458345 7.2664554 9.6151934zm19.1840265 17.3797233h1.6144973c.4261493 0 .8547338-.1432929 1.1396451-.378876.2849113-.2841571.4261494-.7577521.5211198-1.848235.0974056-1.1827732.192376-3.7401864.192376-7.1500706.5211198.5197402 1.2808832.9010449 1.9456762 1.0880542-.0462676 2.7492799-.1436732 6.3461734-.3336141 7.3905112-.1899408 1.3722112-.5673874 1.9890991-1.1396451 2.4602654-.5673874.3788761-1.2808832.5707428-2.1843199.5707428h-2.135617c-.7597634 0-1.6632001-.2380119-2.3279931-.7116069-.6623578-.5221689-.9010015-1.2313471-.9010015-5.3042644V4.8768144H70.6092959v12.8817849c0 7.8155323-.9497043 18.1860491-7.6926047 25.2414007-.3311789-.4250212-1.1859128-1.2289184-1.7557354-1.5616493 6.5042568-6.7250494 7.1690498-16.2455238 7.1690498-23.6797514V2.6982773h14.7691192v34.2882802c0 1.7535159.0949704 2.795425.3311789 3.0310082.3336141.189438.6185254.284157.9984071.284157zM99.8139202 6.4894663v-2.32183h31.7201228v2.32183H99.8139202zm36.6585858 13.4015249h-22.887874c-3.418935 6.5817566-7.502664 13.1635132-11.540124 18.1836205l26.640422-2.3194013c-2.184319-3.2665914-4.653551-6.8197684-6.83787-9.7560576l1.994379-.9933352c4.083728 5.3018356 9.068458 12.311042 11.347748 16.765264L133.05357 43c-.759763-1.4183564-1.804438-3.2180175-2.992786-5.1123976-27.349048 2.4602654-29.677041 2.6521321-31.2915385 3.3127365-.1436732-.5658854-.523555-1.8458063-.8547339-2.5549845.9034367-.189438 2.0893494-1.6126518 3.5139054-3.6940412 1.470825-1.8020898 5.934435-8.3838464 9.117162-15.060322H94.7804875v-2.2756848h41.6920185v2.2756848zm11.681362 23.0142898V23.5364586h29.345863v19.2279582h-2.325558v-2.5574131h-24.741015v2.6982773h-2.27929zm2.27929-4.9253883h24.741015V25.7611409h-24.741015v12.2187518zm17.56953-30.8298221l1.804438-1.1827732c4.794789 4.0243434 10.303074 9.8022027 12.726037 13.7342558l-1.948111 1.4207851c-.806031-1.2799209-1.899409-2.8439988-3.228995-4.4056481-28.442425 1.6563683-30.816686 1.7996611-32.384916 2.3679751-.09497-.5221688-.426149-1.6587969-.71106-2.2732561.903436-.189438 2.230587-1.3260661 3.845084-2.8877153 1.709468-1.564078 7.502664-7.7669585 11.491422-13.7342559l2.233023 1.041909c-4.227402 5.6345666-8.83225 10.9388309-13.344563 15.0117482l27.256513-1.4207851c-2.374261-2.6982773-5.128403-5.4475572-7.738872-7.6722395z"/><path id="d" d="M39.1793699 2.1691848v17.8456878H4.4332314v-4.0019851h30.4078692v-3.3292164H6.5773761V9.4533914h28.2637245V6.17117H4.4332314V2.1691848H39.17937zm-4.2882892 32.0257749l-3.3636581-2.0257267c1.6093579-2.3151163 3.7535026-6.1736434 4.8255749-8.9710755l3.9959059 2.2681214c-1.7543002 2.9903585-3.8009837 6.4135646-5.4578227 8.7286808zM8.0392928 23.344089l3.9484249 1.4469476c-1.1220524 3.2797481-2.7788914 7.041812-5.1654393 9.4039231l-3.8509638-2.2656479c2.2915858-2.0751951 4.093367-5.5948643 5.0679782-8.5852228zm12.1826399-2.3151163h4.7755949c-.1949223 2.1691848-.4873056 4.1479166-.8771501 6.0771802 3.0212947 7.7640491 9.5511897 12.104892 20.8566795 13.2624502-.9246311 1.0141001-2.1441446 2.8469004-2.6314502 4.1479166-9.8910541-1.639874-16.0311046-5.4019379-19.8320883-12.1048921-2.7289113 6.0277119-8.1392529 10.2250969-20.1744516 12.587208C1.9492224 43.8412775.87715 42.1049403 0 41.1403085c17.200638-2.9903585 19.2473215-9.6463178 20.2219327-20.1113358zM94 13.8906976l-3.8984448 2.0727216c-.4373255-.8187003-.9746112-1.7858055-1.656839-2.8444271-15.0090124 1.2540213-17.0057158 1.4469477-18.3226904 2.0257268-.2424033-.9671052-.9246311-3.0398268-1.4619168-4.197385.829669-.143458 1.7068191-.9151634 2.6314502-2.0257267C72.3161505 7.9099806 75.4823873 3.9549902 77.4815898 0l4.6281537 1.4469477C80.11304 4.5807642 77.676512 7.8135174 75.239984 10.3685549l10.8181843-.7717054c-1.1695334-1.639874-2.4865081-3.326743-3.6060614-4.7736906l3.5560813-1.8328004C88.8345607 6.3665697 92.2956799 11.0437971 94 13.8906976zM65.4938721 3.1832849v33.6161806H55.4053968v4.0514535h-4.093367V3.1832849h14.1818423zM55.4078958 13.022529h5.9926093V7.0912802h-5.9926093v5.9312488zm-.002499 19.8219462h5.9926093v-6.1736433h-5.9926093v6.1736433zm0-9.9827021h5.9926093v-6.0301853h-5.9926093v6.0301853zm28.2637246 2.1691848v5.7877906h10.2833975v4.0044586H83.6691214v9.8392441h-4.5806726v-9.8392441H66.7608667v-4.0044586h12.3275821v-5.7877906h-5.7502061c-.82717 1.9787318-1.7543001 3.8115322-2.6314502 5.2090115-.9246311-.6257739-2.8263725-1.5904057-3.9459258-2.0257267 2.1441446-3.0868217 3.9459258-7.7640491 4.9705171-12.2013552l4.2882892.9151634c-.3423634 1.3504845-.7322079 2.7974322-1.1695334 4.1479167h4.2383092v-5.7383224h4.5806726v5.7383224h8.4316363v3.9549903h-8.4316363z"/><path id="e" d="M15.1589407 41c4.3586835 0 7.9090126-1.1925176 10.6463944-3.5752461 2.8545013-2.4980591 4.2829002-5.849564 4.2829002-10.0522082 0-3.5844726-1.1574165-6.518481-3.4722494-8.8066385-2.2183816-2.1889733-5.1004405-3.457609-8.6507695-3.8059072 0 .041519.2411284-.1937553.7233853-.6965963.617748-.5997187 1.1872704-1.2409564 1.7085671-1.9190999L29.334996.5535865V0H3.559515v5.5520112H16.17168c.5993764 0 1.3227617-.041519 2.1701559-.1199437l1.1000049-.1153305-.7233853.7288889c-.5603365.5581997-1.0127394 1.065654-1.359505 1.5085232L8.0720613 19.585429l.2893541.5512799c.6361198-.249114 1.4077308-.4659353 2.314833-.6389311 1.1367483-.2145148 2.2941647-.3206189 3.4722494-.3206189 6.3634941 0 9.5463894 2.6549086 9.5463894 7.9624192 0 5.4459071-2.9417669 8.1654008-8.8230041 8.1654008-2.2780896 0-4.2645286-.5904923-5.9616134-1.7714768-1.4651423-1.0079887-2.6615986-2.3850352-3.5870725-4.126526L0 32.1979747c1.214828 2.611083 3.1530413 4.7170183 5.8146399 6.3016596C8.593358 40.1696203 11.7073595 41 15.1589407 41"/></defs><g fill="#FFF" fill-rule="evenodd"><use transform="translate(191 2)" xlink:href="#a"/><use transform="translate(0 2)" xlink:href="#b"/><use transform="translate(514 1)" xlink:href="#c"/><use transform="translate(413)" xlink:href="#d"/><use transform="translate(712 3)" xlink:href="#e"/></g></svg>