<svg width="3700" height="240" viewBox="0 0 3700 240" xmlns="http://www.w3.org/2000/svg" xmlns:xlink="http://www.w3.org/1999/xlink"><defs><path d="M3700 2.7005v234.598965h-14.245V15.1604h-36.427V2.7005H3700zM3559.135 240c-20.567 0-37.906-4.879679-52.017-14.65241-11.42-7.86096-20.459-18.58288-27.118-32.16577l12.201-5.89572c6.55 12.23262 14.285 21.5508 23.217 27.95454 11.636 8.31551 26.096 12.45989 43.381 12.45989 15.927 0 29.15-4.2647 39.655-12.79411 11.071-8.75669 16.6-20.37433 16.6-34.86631 0-23.35562-16.102-42.43311-48.292-57.25941l-21.858-9.9331c-32.876-15.1604-49.314-35.3075-49.314-60.4679 0-15.7219 5.704-28.5161 17.111-38.3957C3523.543 4.6658 3537.156 0 3553.54 0c14.581 0 27.226 3.4358 37.96 10.2807 8.582 5.4947 16.101 13.3557 22.545 23.5696l-11.192 7.246c-5.65-8.984-11.811-15.722-18.469-20.2139-8.582-5.6017-18.873-8.4091-30.844-8.4091-29.365 0-44.054 13.1951-44.054 39.5722 0 19.6524 13.667 35.762 41.014 48.3422l21.858 9.9332c37.732 17.0721 56.591 40.30744 56.591 69.71921 0 18.08823-6.551 32.67379-19.653 43.79679C3596.41 234.612299 3579.689 240 3559.135 240z" id="a"/><path d="M1160 236.979002V3.005h78.459c25.419 0 45.584 5.9993 60.481 17.9847 16.351 12.8785 24.539 31.6898 24.539 56.4204 0 33.7162-15.857 56.0471-47.558 67.03252l55.107 92.536382h-41.663l-50.573-86.657042h-42.33v86.657042H1160zm2028.959 0V3.005h78.472c25.419 0 45.584 5.9993 60.481 17.9847 16.351 12.8785 24.526 31.6898 24.526 56.4204 0 33.7162-15.857 56.0471-47.545 67.03252L3360 236.979002h-41.663l-50.573-86.657042h-42.343v86.657042h-36.462zM3225.42 119.752h40.663c32.594 0 48.891-14.1184 48.891-42.3419 0-28.1969-16.297-42.3153-48.891-42.3153h-40.663v84.6572zm-233.415 117.227002V3.005h148.689v32.0898h-112.227v68.699h99.464v31.3965h-99.464v69.85892h116.935v31.929782h-153.397zm-139.182 0V35.0948h-69.563V3.005h175.068v32.0898h-69.39v201.884202h-36.115zM2686.807 240c-20.952 0-38.983-4.812799-54.106-14.45173-13.097-8.17242-23.179-19.47783-30.234-33.91623l29.9-16.63815c6.495 10.63882 13.27 18.37129 20.325 23.18409 9.189 6.38596 20.338 9.57227 33.435 9.57227 26.993 0 40.49-10.69215 40.49-32.07644 0-9.41228-3.308-17.30474-9.91-23.67737-5.494-5.03944-15.23-10.63881-29.233-16.79814l-15.457-6.8926c-18.591-8.279-32.035-17.1314-40.317-26.5303-9.642-10.9722-14.456-24.9706-14.456-41.9954 0-17.3447 6.108-31.5698 18.311-42.6486C2647.878 5.9327 2663.668.3333 2682.939.3333c30.354 0 52.36 12.2653 66.03 36.7826l-28.567 17.638c-8.629-15.2383-21.112-22.8508-37.463-22.8508-20.165 0-30.247 9.079-30.247 27.2103 0 13.9985 11.256 25.9172 33.768 35.7694l15.124 6.8926c21.285 9.3989 36.515 19.1445 45.704 29.2234 10.296 11.75867 15.457 26.53036 15.457 44.34172 0 20.03777-7.121 35.996-21.338 47.86135C2727.403 234.400622 2709.199 240 2686.807 240zm-305.647-3.020998L2481.291.6586h4.201l102.478 236.320402h-37.796l-17.311-42.661922h-99.464l-17.137 42.661922h-35.102zm64.683-72.895902h73.925l-25.379-63.6463c-2.348-5.4927-4.868-12.6119-7.549-21.3443-2.587-7.3858-3.988-11.7586-4.201-13.0785l-3.708 12.412c-2.8 9.1989-5.321 16.5181-7.548 22.0108l-25.54 63.6463zm-328.08 72.895902V.6586h3.868l111.72 130.6655L2344.244.6586h3.695v236.320402h-34.782V115.5525c0-5.2661.227-12.372.68-21.331l.667-12.092-7.229 10.4122c-5.268 7.5059-9.802 13.3319-13.603 17.4647l-58.974 70.87217h-4.028l-58.801-70.87217c-3.707-4.1328-8.068-9.8655-13.109-17.1447l-7.562-10.7322.667 12.092c.453 8.959.68 16.0649.68 21.331v121.426502h-34.782zM1953.87 240c-33.941 0-62.495-11.19876-85.687-33.59627-23.406-22.94411-35.115-51.72758-35.115-86.32373 0-34.7028 11.709-63.4863 35.115-86.3238C1891.375 11.2521 1919.929 0 1953.87 0c33.715 0 62.162 11.2521 85.354 33.7562 23.406 22.8375 35.102 51.621 35.102 86.3238 0 34.59615-11.696 63.37962-35.102 86.32373C2016.032 228.80124 1987.585 240 1953.87 240zm0-32.58838c24.299 0 44.237-8.39907 59.815-25.1972 15.563-16.4515 23.352-37.1692 23.352-62.13972 0-25.0773-7.789-45.8349-23.352-62.3131-15.578-16.7715-35.516-25.1706-59.815-25.1706-24.312 0-44.411 8.3991-60.321 25.1706-15.564 16.4782-23.352 37.2358-23.352 62.3131 0 24.97052 7.788 45.68822 23.352 62.13972 15.91 16.79813 36.009 25.1972 60.321 25.1972zm-314.061 29.567382V3.005h83.327c22.179 0 39.489 5.8927 51.919 17.638 11.429 10.9855 17.137 25.4372 17.137 43.3286 0 25.6504-11.589 42.062-34.781 49.2345 30.58 7.0392 45.864 26.1971 45.864 57.42027 0 19.71781-6.321 35.50273-18.978 47.35474-13.336 12.665263-31.807 18.997892-55.44 18.997892h-89.048zM1676.27 99.7676h44.691c23.632 0 35.448-10.8255 35.448-32.4364 0-21.4776-12.043-32.2364-36.129-32.2364h-44.01v64.6728zm0 105.28828h50.572c26.646 0 39.983-12.42528 39.983-37.27586 0-24.97055-14.003-37.44912-42.01-37.44912h-48.545v74.72498zM1475.916 240c-33.941 0-62.495-11.19876-85.687-33.59627-23.406-22.94411-35.115-51.72758-35.115-86.32373 0-34.7028 11.709-63.4863 35.115-86.3238C1413.421 11.2521 1441.975 0 1475.916 0c33.715 0 62.162 11.2521 85.341 33.7562 23.419 22.8375 35.115 51.621 35.115 86.3238 0 34.59615-11.696 63.37962-35.115 86.32373C1538.078 228.80124 1509.631 240 1475.916 240zm0-32.58838c24.299 0 44.238-8.39907 59.815-25.1972 15.563-16.4515 23.352-37.1692 23.352-62.13972 0-25.0773-7.789-45.8349-23.352-62.3131-15.577-16.7715-35.516-25.1706-59.815-25.1706-24.312 0-44.411 8.3991-60.321 25.1706-15.564 16.4782-23.352 37.2358-23.352 62.3131 0 24.97052 7.788 45.68822 23.352 62.13972 15.91 16.79813 36.009 25.1972 60.321 25.1972zM1196.461 119.752h40.65c32.594 0 48.891-14.1184 48.891-42.3419 0-28.1969-16.297-42.3153-48.891-42.3153h-40.65v84.6572z" id="b"/><path d="M45.60484 0h24.36828v49.5652h33.29298v22.9565H69.97312v7.8261c8.91129 10.1806 32.24458 38.8629 37.48658 45.9131l-13.37368 23.47823c-5.24193-9.3913-15.20161-25.31103-24.1129-38.60873v128.347861H45.60484V125.4716c-9.18011 25.31101-20.71237 49.04345-32.76882 64.96318C9.959677 183.38462 3.938172 174.26087 0 168.52174c17.29839-22.95652 34.59677-62.08694 43.23925-96.00004H4.448925V49.5652H45.60484V0zM1040 12.7893v22.1672h-63.4274V63.398h55.0404v113.21738c0 10.43479-1.573 16.69566-8.387 20.08027-7.084 3.65218-16.25 3.90636-30.148 3.90636-.5108-5.99331-3.9248-15.38462-6.8146-20.86957 8.656.26756 17.0426.26756 19.1396 0 2.877 0 3.67-.77592 3.67-3.38461V85.0435h-32.5004v153.645463h-22.8092V85.0435H923.629v116.86954h-22.2849V63.398h52.4193V34.9565H892.957V12.7893H1040zM212.0296 213.91304h5.2553c1.828 0 3.4006-.52174 4.449-1.56521 1.3037-1.56522 1.8279-3.90636 2.0967-9.64549.5242-6.00669.7796-19.05017.7796-35.49164 4.9866 3.91973 12.0565 7.82609 18.3468 10.1806 0 14.35452-1.0484 32.86957-2.621 39.90636-1.0484 7.57191-3.6693 12-7.3387 14.876253-3.9247 2.876254-9.1667 4.173913-14.9328 4.173913h-13.3736c-4.9732 0-11.5323-1.832776-15.9812-5.73913-4.1936-4.428096-6.035-9.913046-6.035-32.080266V37.8194h-41.4113V98.087c0 43.55848-6.0215 104.34778-43.23921 141.913-3.93817-4.695652-13.89785-13.04348-19.66397-16.17391C113.2258 188.86957 116.6263 137.4849 116.6263 98.087V14.8629h90.4302v184.18727c0 8.08026.2553 12.25418 1.0483 13.29766 1.0484 1.04347 2.0968 1.56521 3.9248 1.56521zm190.0269-77.99334h60.0134V99.398h-60.0134v36.5217zm-86.492 0h60.8065V99.398h-60.8065v36.5217zm0-59.4916h60.8065V38.8629h-60.8065v37.5652zm86.492 0h60.0134V38.8629h-60.0134v37.5652zM290.6586 15.6522h197.621v156.78927h-26.2097v-13.31104h-60.0134v80.347831H376.371V159.13043h-60.8065v13.8194h-24.9059V15.6522zm480.4301 81.6455h-95.6586c17.8091 54.26083 50.8333 98.35447 100.3764 118.95648-6.035 5.21739-14.1533 15.397994-18.078 22.702342C708.7097 216.25418 676.9892 173.99331 656.5457 118.689c-13.3602 47.22404-41.6667 92.34779-101.1559 120.267522-3.9382-6.528428-11.8011-15.130432-18.6156-20.347822 62.379-27.13044 87.7957-74.08696 98.2796-121.311h-93.0377V72.2676h97.5c3.1452-26.087 2.8764-51.1439 3.1452-72.0134h26.465c-.2553 21.1371-.5241 46.1806-3.6693 72.0134h105.6317v25.0301zm45.0807 58.18056V29.7391h21.7473v125.73916h-21.7473zm41.6666-52.17396V.5217h22.5403v102.7826c0 51.65222-4.9731 100.17396-44.2876 135.652222-3.9382-5.217392-12.5806-12.775922-18.0914-16.173912 35.6452-31.30435 39.8387-73.8194 39.8387-119.47831z" id="c"/></defs><g fill="#FFF" fill-rule="evenodd"><use xlink:href="#a"/><use xlink:href="#b"/><use xlink:href="#c"/></g></svg>