<svg width="42" height="24" viewBox="0 0 42 24" xmlns="http://www.w3.org/2000/svg" xmlns:xlink="http://www.w3.org/1999/xlink"><defs><path d="M16.619 12.963L19.714 0h6.78l-3.523 14.746c-.678 2.846-2.792 3.53-4.747 3.53H2.6c-1.722 0-3.163-.733-2.382-4.02l1.408-5.881C2.338 5.39 4.555 4.71 6.158 4.71h10.905l-.879 3.675h-5.568c-.818 0-1.267.177-1.495 1.133l-.9 3.757c-.32 1.345.15 1.439 1.137 1.439h5.101c.934 0 1.756-.06 2.16-1.752zm18.395-8.298l-3.19 13.569h6.587L41.6 4.665h-6.586zM24.292 15.86c-.606 2.54-2.355 3.397-4.113 3.544-.174.022-5.088-.003-5.088-.003L13.986 24h9.238c2.42 0 5.993-1.238 7.27-6.581l3.069-12.754h-6.586L24.292 15.86z" id="a"/></defs><g fill="none" fill-rule="evenodd"><mask id="b" fill="#fff"><use xlink:href="#a"/></mask><g mask="url(#b)" fill="#FFF"><path d="M0 0h42v24H0z"/></g></g></svg>