<svg width="486" height="36" viewBox="0 0 486 36" xmlns="http://www.w3.org/2000/svg" xmlns:xlink="http://www.w3.org/1999/xlink"><defs><path d="M258 4.282h28.52v30.29h-1.97V31.36h-24.619v3.45H258V4.283zm1.931 25.137h24.621V6.185h-24.62v23.234zM325.48 4.044l-1.182 1.149c-1.339-1.149-3.98-2.735-6.185-3.804l1.182-.993c2.127.952 4.846 2.459 6.185 3.648zm-21.508 3.727l9.06-.793A27.05 27.05 0 0 1 311.652 0h1.853a24.553 24.553 0 0 0 1.378 6.779l13.472-1.149.198 1.665-12.92 1.149c2.205 4.442 5.868 7.098 9.768 7.019 1.3 0 1.615-.952 1.812-3.886a6.028 6.028 0 0 0 1.576.832c-.315 3.808-1.143 4.877-3.428 4.877-5.004.039-9.218-3.291-11.66-8.643l-9.533.793-.196-1.665zm9.099 10.388l-1.733.831c-.552-1.149-1.734-3.013-2.837-4.32l1.616-.675c1.142 1.268 2.402 3.015 2.954 4.164zm-13.393-.635V7.97c-1.655 1.745-3.467 3.29-5.239 4.597a16.42 16.42 0 0 0-1.458-1.386C296.998 8.564 301.016 4.4 303.42 0l1.733.596a37.436 37.436 0 0 1-3.664 5.31v11.618h-1.812zm25.014 4.64l1.536 1.07c-2.087 1.665-5.002 3.448-7.406 4.719 2.915 2.258 6.5 3.883 10.636 4.717-.473.435-.984 1.15-1.26 1.705-7.84-1.943-13.747-6.422-16.782-13.163h-.078c-1.772 1.666-4.176 3.252-6.776 4.677v6.384l9.652-2.26c0 .516.079 1.27.117 1.664-10.4 2.579-11.58 2.975-12.25 3.45a7.538 7.538 0 0 0-.749-1.744c.552-.158 1.418-.476 1.418-1.864v-4.717c-2.717 1.307-5.594 2.458-8.115 3.172-.315-.476-.826-1.15-1.22-1.507 5.238-1.307 11.503-4.123 15.44-7.255h-14.811v-1.746h34.784v1.746h-15.48c1.062 2.14 2.52 4.042 4.292 5.67 2.364-1.27 5.279-3.252 7.052-4.718zm12.802-16.731V3.489h26.313v1.944h-26.313zm30.41 11.219h-18.987c-2.836 5.512-6.224 11.022-9.57 15.225l22.097-1.944c-1.812-2.735-3.86-5.71-5.672-8.167l1.654-.832c3.388 4.44 7.525 10.308 9.416 14.035L365.067 36a75.734 75.734 0 0 0-2.48-4.282c-22.69 2.062-24.622 2.22-25.96 2.775-.118-.475-.433-1.545-.71-2.14.75-.16 1.733-1.349 2.915-3.093 1.22-1.507 4.925-7.017 7.563-12.608h-13.078v-1.903h34.586v1.903zm9.69 19.269V19.706h24.345V35.8h-1.93v-2.14h-20.524v2.26h-1.89zm1.891-4.124h20.525V21.568h-20.525v10.23zM394.06 5.986l1.497-.99c3.98 3.369 8.55 8.206 10.557 11.497l-1.614 1.19a32.844 32.844 0 0 0-2.678-3.688c-23.597 1.388-25.567 1.508-26.866 1.982-.078-.435-.355-1.387-.591-1.903.749-.157 1.852-1.108 3.191-2.418 1.418-1.309 6.224-6.502 9.533-11.497l1.85.872c-3.504 4.717-7.326 9.157-11.068 12.567l22.611-1.19c-1.97-2.258-4.254-4.558-6.422-6.422zM420.216 0v8.643h6.106v1.865h-6.106v4.24c1.38 1.428 5.12 5.63 5.987 6.741l-1.34 1.547c-.787-1.27-3.031-4.084-4.647-6.026v18.83h-1.891V15.225c-1.693 4.955-4.097 9.99-6.46 12.884-.275-.514-.827-1.228-1.22-1.665 2.914-3.448 5.987-10.11 7.484-15.936h-6.58V8.643h6.776V0h1.89zm7.878 2.458h17.452v33.105h-1.891v-2.418h-13.709v2.418h-1.852V2.458zm1.852 28.902h13.709v-7.968h-13.709v7.968zm0-19.427h13.709V4.32h-13.709v7.612zm0 9.674h13.709v-7.889h-13.709v7.889zm35.649-2.418l-1.299 1.784c-.828-1.507-3.113-4.917-4.727-7.214V35.88h-1.852V14.194c-1.655 5.113-4.057 10.387-6.42 13.36-.277-.553-.788-1.228-1.182-1.624 2.796-3.53 5.868-10.347 7.287-16.256h-6.659V7.81h6.974V0h1.852v7.81h6.105v1.864h-6.105v1.466c1.34 1.627 5.198 6.821 6.026 8.05zm15.914 14.552h1.34c.355 0 .709-.12.945-.32.236-.237.356-.631.434-1.544.08-.993.156-3.131.156-5.988.434.437 1.065.754 1.616.913-.038 2.3-.117 5.313-.275 6.185-.157 1.149-.474 1.665-.945 2.061-.473.318-1.065.476-1.812.476h-1.774c-.63 0-1.378-.197-1.929-.596-.554-.435-.75-1.03-.75-4.438V4.083h-8.468v10.784c0 6.543-.788 15.224-6.381 21.133-.277-.358-.986-1.03-1.459-1.31 5.398-5.63 5.95-13.597 5.95-19.823V2.26h12.25v28.703c0 1.468.078 2.34.276 2.537.275.16.511.24.826.24zM111.16 36c-5.102 0-9.395-1.68-12.881-5.04C94.76 27.52 93 23.204 93 18.013c0-5.205 1.76-9.523 5.279-12.949C101.765 1.688 106.058 0 111.16 0c5.069 0 9.345 1.688 12.832 5.063 3.519 3.426 5.279 7.744 5.279 12.949 0 5.191-1.76 9.507-5.28 12.949-3.486 3.36-7.762 5.039-12.83 5.039zm0-4.885c3.653 0 6.65-1.262 8.992-3.782 2.34-2.466 3.511-5.575 3.511-9.321 0-3.762-1.17-6.877-3.51-9.345-2.342-2.52-5.34-3.78-8.993-3.78-3.654 0-6.676 1.26-9.068 3.78-2.34 2.468-3.51 5.583-3.51 9.345 0 3.746 1.17 6.855 3.51 9.321 2.392 2.52 5.414 3.782 9.068 3.782zM144.96 36c-3.15 0-5.861-.72-8.135-2.166-1.97-1.226-3.484-2.923-4.547-5.09l4.497-2.493c.977 1.596 1.995 2.754 3.056 3.476 1.381.958 3.057 1.436 5.026 1.436 4.058 0 6.087-1.604 6.087-4.812 0-1.41-.497-2.594-1.49-3.552-.826-.755-2.29-1.593-4.395-2.517l-2.323-1.034c-2.795-1.244-4.816-2.57-6.063-3.982-1.448-1.644-2.171-3.745-2.171-6.297 0-2.602.918-4.737 2.752-6.4C139.107.89 141.481.05 144.378.05c4.563 0 7.871 1.84 9.926 5.517l-4.294 2.646c-1.298-2.284-3.174-3.426-5.632-3.426-3.032 0-4.547 1.36-4.547 4.082 0 2.098 1.692 3.888 5.076 5.365l2.274 1.032c3.2 1.412 5.49 2.872 6.87 4.384 1.548 1.764 2.324 3.981 2.324 6.651 0 3.006-1.07 5.401-3.208 7.18-2.105 1.68-4.842 2.519-8.208 2.519zm17.602-.454V.1h.582l16.797 19.602L196.61.1h.555v35.446h-5.229V17.332c0-.788.034-1.856.103-3.2l.1-1.813-1.085 1.561c-.792 1.126-1.473 2-2.047 2.62l-8.866 10.633h-.605l-8.84-10.633c-.555-.62-1.213-1.478-1.97-2.57l-1.137-1.611.102 1.813c.066 1.344.1 2.412.1 3.2v18.214h-5.229zM221.89 36c-5.1 0-9.395-1.68-12.882-5.04-3.519-3.441-5.277-7.757-5.277-12.948 0-5.205 1.758-9.523 5.277-12.949C212.495 1.688 216.79 0 221.89 0c5.068 0 9.345 1.688 12.831 5.063C238.24 8.49 240 12.807 240 18.012c0 5.191-1.76 9.507-5.279 12.949C231.235 34.32 226.958 36 221.89 36zm0-4.885c3.655 0 6.652-1.262 8.992-3.782 2.34-2.466 3.51-5.575 3.51-9.321 0-3.762-1.17-6.877-3.51-9.345-2.34-2.52-5.337-3.78-8.992-3.78-3.653 0-6.677 1.26-9.067 3.78-2.341 2.468-3.51 5.583-3.51 9.345 0 3.746 1.169 6.855 3.51 9.321 2.39 2.52 5.414 3.782 9.067 3.782zM31.26 1.735v14.277H3.537V12.81H27.8v-2.663H5.248V7.563h22.55V4.937H3.539V1.735H31.26zm-3.42 25.621l-2.684-1.62c1.284-1.853 2.995-4.94 3.85-7.177l3.188 1.814c-1.4 2.392-3.032 5.13-4.354 6.983zm-21.425-8.68l3.15 1.157c-.895 2.624-2.217 5.633-4.12 7.523L2.37 25.543c1.828-1.66 3.266-4.475 4.043-6.868zm9.72-1.853h3.81a44.367 44.367 0 0 1-.699 4.862c2.41 6.211 7.62 9.684 16.64 10.61-.737.811-1.71 2.277-2.099 3.318-7.891-1.312-12.79-4.321-15.823-9.684-2.177 4.822-6.494 8.18-16.097 10.07C1.556 35.073.7 33.684 0 32.912c13.724-2.392 15.357-7.717 16.135-16.089zM75 11.113l-3.11 1.658a31.656 31.656 0 0 0-1.322-2.276c-11.976 1.003-13.569 1.158-14.62 1.62-.193-.773-.737-2.431-1.166-3.357.662-.115 1.362-.732 2.1-1.62.817-.81 3.343-3.974 4.938-7.138l3.693 1.158c-1.593 2.507-3.537 5.093-5.481 7.137l8.631-.618c-.933-1.311-1.983-2.66-2.877-3.818l2.838-1.467c2.255 2.701 5.016 6.443 6.376 8.72zM52.256 2.547V29.44h-8.05v3.24H40.94V2.548h11.316zm-8.048 7.871h4.782V5.673h-4.782v4.745zm-.002 15.858h4.782v-4.94h-4.782v4.94zm0-7.987h4.782v-4.824h-4.782v4.824zm22.551 1.736v4.63h8.205v3.204h-8.205v7.871h-3.655v-7.871h-9.835v-3.204h9.835v-4.63h-4.587c-.66 1.583-1.4 3.049-2.1 4.167-.738-.5-2.255-1.272-3.148-1.62 1.71-2.47 3.148-6.212 3.965-9.762l3.422.732a54.314 54.314 0 0 1-.933 3.319h3.381v-4.59h3.655v4.59h6.728v3.164h-6.728z" id="a"/></defs><use fill="#FFF" xlink:href="#a" fill-rule="evenodd"/></svg>