<svg width="237" height="22" viewBox="0 0 237 22" xmlns="http://www.w3.org/2000/svg"><path d="M197.882 14.593l1.14.388c-1.456 2.01-3.588 3.994-5.504 5.349-.219-.218-.703-.606-1.018-.774 1.964-1.259 4.048-3.123 5.382-4.963zm12.048-2.081l-6.618.46v6.97c0 .775-.194 1.114-.8 1.331-.654.219-1.794.219-3.563.219-.049-.364-.268-.823-.46-1.162 1.575.048 2.81.048 3.175.024.388-.024.485-.12.485-.411v-6.899c-7.347.533-8.17.655-8.8.872a7.889 7.889 0 0 0-.364-1.162c.679-.072 1.842-.556 3.32-1.33.898-.413 2.91-1.526 5.262-3.002-5.6.363-6.303.436-6.716.58-.072-.24-.243-.822-.363-1.112.436-.048 1.067-.436 1.745-.993.68-.46 2.789-2.25 4.533-4.138-2.473.217-4.994.387-7.32.533-.025-.316-.17-.751-.292-1.017 5.843-.364 13.043-1.041 16.8-1.961l.849.968c-2.206.509-5.212.968-8.388 1.307-1.818 1.936-3.757 3.727-5.648 5.107l6.472-.338a55.934 55.934 0 0 0 4.146-2.978l.945.774a72.027 72.027 0 0 1-11.951 7.261l12.68-.871c-.753-.775-1.602-1.549-2.353-2.227l.921-.459c1.916 1.621 4.048 3.824 5.067 5.251l-.945.606c-.437-.63-1.067-1.404-1.82-2.203zm-3.951 2.517l.873-.556c2.085 1.596 4.654 3.824 5.987 5.228l-.945.701c-1.26-1.404-3.83-3.702-5.915-5.373zm10.158-12.537V1.38h12.097v1.113h-6.594a33.881 33.881 0 0 1-1.237 4.285h6.037l.217-.049.728.242c-1.26 8.277-5.163 12.876-10.012 15.03a3.571 3.571 0 0 0-.704-.969c2.45-.991 4.728-2.759 6.449-5.373-1.018-.943-2.739-2.226-4.121-3.098l.631-.846c1.405.822 3.078 2.033 4.12 2.928 1.067-1.863 1.868-4.115 2.352-6.777h-6.085c-.848 2.082-1.843 3.946-2.981 5.373a8.081 8.081 0 0 0-.945-.702c2.035-2.42 3.49-6.098 4.362-10.044h-4.314zm14.205 13.699V2.928h1.14V16.19h-1.14zM235.336 0h1.164v20.112c0 .92-.266 1.258-.848 1.477-.582.193-1.625.217-3.419.217-.072-.314-.217-.823-.411-1.137 1.406.023 2.642.023 2.982 0 .387-.025.532-.122.532-.534V0zM172.22 20.61h9.28v1.144h-13.452v-.124l8.76-9.42c1.02-1.1 1.78-2.103 2.269-3.01.603-1.131.905-2.29.905-3.474 0-3.035-1.509-4.553-4.525-4.553-2.904 0-4.654 1.54-5.246 4.615l-1.197-.23c.266-1.626.956-2.949 2.072-3.97C172.26.528 173.718 0 175.456 0c1.75 0 3.156.523 4.219 1.574 1.064 1.06 1.595 2.445 1.595 4.152 0 1.287-.378 2.604-1.135 3.953a13.47 13.47 0 0 1-1.181 1.746 27.572 27.572 0 0 1-1.38 1.636l-5.723 6.129c-.286.32-.649.675-1.088 1.066-.388.338-.583.497-.583.478l.69-.061c.542-.042.992-.063 1.35-.063zm-14.24-2.809L164.897.246h1.288L157.551 22h-.384L148.5.246h1.38l6.918 17.555c.113.287.246.699.4 1.234l.2.727.183-.727c.154-.535.286-.947.398-1.234zm-69.349-.204c-.266.278-.604.58-1.013.908-.368.288-.552.427-.552.415l.614-.06c.48-.042.894-.063 1.243-.063h6.966v2.925H80.713v-.277l8.793-9.282c2.015-2.105 3.022-3.993 3.022-5.667 0-2.266-1.15-3.4-3.452-3.4-2.21 0-3.647 1.323-4.312 3.971l-3.298-.754c.388-1.888 1.226-3.394 2.516-4.512 1.37-1.18 3.068-1.77 5.094-1.77 2.077 0 3.744.6 5.003 1.802 1.227 1.19 1.841 2.735 1.841 4.634 0 2.278-1.234 4.726-3.699 7.342l-3.59 3.788zm-21.24-5.558L77.517.06h.338v21.662h-3.177v-11.13c0-.483.02-1.133.061-1.954l.062-1.109-.66.954c-.481.688-.895 1.222-1.242 1.6l-5.387 6.498h-.368l-5.371-6.498c-.338-.378-.736-.903-1.196-1.57l-.691-.984.06 1.109c.042.82.063 1.471.063 1.954v11.13h-3.177V.063h.354L67.39 12.038zm46.443-9.376c.869.946 1.54 2.088 2.01 3.434.5 1.447.751 3.083.751 4.91s-.25 3.464-.751 4.913c-.47 1.343-1.141 2.482-2.01 3.417-1.648 1.775-3.719 2.663-6.214 2.663-2.507 0-4.584-.888-6.23-2.663-.87-.935-1.54-2.074-2.01-3.417-.502-1.45-.753-3.086-.753-4.913 0-1.827.25-3.463.752-4.91.47-1.346 1.14-2.488 2.01-3.434C103.036.887 105.113 0 107.62 0c2.496 0 4.567.887 6.215 2.663zm-2.302 14.472c1.074-1.415 1.612-3.459 1.612-6.128 0-2.678-.538-4.72-1.612-6.126-.972-1.283-2.277-1.926-3.912-1.926-1.648 0-2.958.643-3.929 1.926-1.074 1.405-1.611 3.448-1.611 6.126 0 2.67.537 4.713 1.611 6.128.971 1.272 2.28 1.909 3.929 1.909 1.635 0 2.94-.637 3.912-1.91zm25.215-11.038c.502 1.447.753 3.083.753 4.91s-.25 3.464-.753 4.913c-.47 1.343-1.14 2.482-2.01 3.417-1.646 1.775-3.718 2.663-6.214 2.663-2.507 0-4.584-.888-6.23-2.663-.87-.935-1.54-2.074-2.01-3.417-.502-1.45-.752-3.086-.752-4.913 0-1.827.25-3.463.752-4.91.47-1.346 1.14-2.488 2.01-3.434C123.938.887 126.015 0 128.522 0c2.496 0 4.568.887 6.214 2.663.87.946 1.54 2.088 2.01 3.434zm-4.312 11.038c1.075-1.415 1.612-3.459 1.612-6.128 0-2.678-.537-4.72-1.612-6.126-.972-1.283-2.275-1.926-3.912-1.926-1.647 0-2.956.643-3.928 1.926-1.075 1.405-1.612 3.448-1.612 6.126 0 2.67.537 4.713 1.612 6.128.972 1.272 2.281 1.909 3.928 1.909 1.637 0 2.94-.637 3.912-1.91zM9.499 12.151H20.82v2.012h-4.644v5.202h5.804v2.084H8.08v-2.084h5.897v-5.202H9.5V12.15zm-1.35 4.505l.236 1.965c-2.7.744-5.543 1.51-7.745 2.108l-.403-2.203c1.966-.41 4.998-1.15 7.911-1.87zM20.584 1.988c-.902 1.919-2.227 3.596-3.815 5.009 1.99.864 4.17 1.966 5.401 2.756l-1.302 1.775c-1.256-.889-3.72-2.157-5.804-3.14-1.848 1.342-3.932 2.373-5.992 3.14-.309-.553-.877-1.416-1.35-1.894 3.624-1.152 7.366-3.452 9.474-6.35H9.308V1.269h9.31l.426-.096 1.54.815zM.166 13.756c.569-.12 1.137-.672 1.895-1.51.45-.455 1.303-1.461 2.25-2.805-2.606.36-3.221.504-3.6.697C.64 9.682.26 8.604 0 8.028c.474-.12.876-.646 1.397-1.463C1.942 5.823 3.672 2.78 4.572 0l2.085.982c-.995 2.35-2.37 4.769-3.72 6.734l2.772-.263a30.36 30.36 0 0 0 1.492-2.517l1.895 1.246a46.593 46.593 0 0 1-4.95 6.687l4.168-.719c-.071.575-.071 1.486-.048 1.94-5.922 1.177-6.797 1.439-7.39 1.775-.094-.456-.45-1.51-.71-2.109zm39.817-4.218v2.302h5.85s0 .527-.047.79c-.26 4.218-.52 5.919-1.065 6.542-.38.43-.734.576-1.28.672-.426.048-1.207.048-1.99.024-.022-.551-.212-1.344-.496-1.848.71.074 1.255.096 1.563.096.285 0 .45-.048.64-.261.26-.313.473-1.367.663-3.932h-3.838V22h-2.25v-8.077h-5.045V11.84h5.046V9.538h-4.17V7.477h4.17V5.273h-4.667V3.211h4.667V.046h2.25v3.165h5.187v2.062h-5.188v2.204h4.406v2.06h-4.406zm-11.629-.072c-2.558.36-3.08.48-3.435.646a37.245 37.245 0 0 0-.64-2.012c.403-.12.805-.623 1.303-1.438.497-.765 2.132-3.81 3.032-6.639l1.895.96c-.948 2.372-2.274 4.84-3.6 6.854l2.628-.265a31.37 31.37 0 0 0 1.328-2.491l1.634 1.053a48.749 48.749 0 0 1-4.619 6.95l4.24-.79c-.048.527-.07 1.365-.023 1.798-5.662 1.223-6.492 1.461-6.989 1.773a14.896 14.896 0 0 0-.639-1.894c.521-.119 1.066-.67 1.753-1.558.402-.43 1.232-1.533 2.132-2.947zm-3.91 9.155c2.085-.408 5.236-1.175 8.291-1.917l.213 1.844c-2.842.792-5.875 1.583-8.1 2.207l-.403-2.134z" fill="#FFF"/></svg>