<svg id="图层_1" data-name="图层 1" xmlns="http://www.w3.org/2000/svg" viewBox="0 0 3939.03 240"><defs><style>.cls-1{fill:#fff;}</style></defs><title>56_full</title><path class="cls-1" d="M859.26,207.43q36.56,0,60-25.21,23.4-24.66,23.41-62.14t-23.41-62.3q-23.4-25.2-60-25.2t-60.44,25.2q-23.42,24.68-23.4,62.3,0,37.46,23.4,62.14Q822.73,207.42,859.26,207.43Zm0,32.57q-51,0-85.87-33.6Q738.2,172,738.21,120.08t35.18-86.32Q808.25,0,859.26,0q50.68,0,85.55,33.76Q980,68,980,120.08q0,51.92-35.19,86.32Q909.94,240,859.26,240Zm-395.51-3V.67h3.88l112,130.68L690.73.67h3.7V237H659.58V115.55q0-7.89.68-21.33l.67-12.1-7.24,10.42A174.68,174.68,0,0,1,640.05,110l-59.11,70.89h-4L518,110a179.68,179.68,0,0,1-13.14-17.13l-7.58-10.75.68,12.1q.66,13.44.67,21.33V237Zm-117.36,3q-31.49,0-54.22-14.44a81.05,81.05,0,0,1-30.32-33.93l30-16.62q9.76,16,20.37,23.17,13.82,9.57,33.51,9.57,40.59,0,40.58-32.08A31.56,31.56,0,0,0,376.36,152q-8.26-7.56-29.3-16.79l-15.49-6.89q-27.94-12.43-40.42-26.54-14.47-16.44-14.47-42,0-26,18.35-42.66Q313.56.33,342.52.33q45.63,0,66.17,36.79L380.06,54.75q-13-22.83-37.54-22.83-30.31,0-30.32,27.21,0,21,33.85,35.77l15.15,6.88Q393.21,115.9,407,131q15.48,17.64,15.49,44.34,0,30.06-21.38,47.86Q380.06,240,346.39,240ZM121.07,207.43q36.52,0,60-25.21,23.39-24.66,23.4-62.14T181,57.78q-23.42-25.2-60-25.2T60.62,57.78q-23.4,24.68-23.41,62.3,0,37.46,23.41,62.14Q84.53,207.42,121.07,207.43Zm0,32.57q-51,0-85.88-33.6Q0,172,0,120.08T35.19,33.76Q70.07,0,121.07,0q50.69,0,85.54,33.76Q241.8,68,241.81,120.08q0,51.92-35.2,86.32Q171.75,240,121.07,240Z"/><path class="cls-1" d="M2275.79,240H2280V2.7h-13.14V192.5c0,2.81.18,6.58.51,11.28l.51,6.23-10.78-15.49L2107.3,0h-4.21V237.3h13.12V47.66l-.51-11.44-.49-6.23,3.52,5.54c2.93,4.28,5.28,7.58,7.07,9.95ZM1933,227.37q-45.29,0-75.42-30.66t-30.13-76.63q0-46.14,30.13-76.63,30.12-30.65,75.42-30.64t75.24,30.64q30.12,30.49,30.13,76.63t-30.13,76.63Q1978.29,227.37,1933,227.37Zm0,12.63q50.48,0,84.83-33.18,35-34.2,35-86.74,0-52.69-35-86.9Q1983.52,0,1933,0q-50.67,0-84.84,33.18Q1813,67.38,1813,120.08t35.18,86.74Q1882.34,240,1933,240Zm-185.48-2.7h14.13V2.69h-14.13Zm-128.83,0h14.14V15.16h74.57V2.7H1544.31V15.16h74.4Zm-188.4,2.7q63.45,0,95.78-46.82l-10.61-7.58q-29.28,41.78-85.17,41.77-45.29,0-75.42-30.66t-30.13-76.63q0-46.14,30.13-76.63,30.13-30.65,75.42-30.64,54.38,0,82.31,39.57l10.77-7.91Q1492.76,0,1430.31,0q-50.67,0-84.84,33.18-35.19,34.2-35.18,86.9t35.18,86.74Q1379.66,240,1430.31,240ZM1100,237.3h14.15l24.75-62.82h115.63l25.08,62.82h14.49L1199,0h-4.21Zm44.11-75.11,46-115.71c1.24-3.24,2.7-7.58,4.38-13l2.35-7.92,1.53,4.88c.33,1,.61,2,.84,3,1.68,5.5,3.19,10,4.54,13.47l46,115.2Z"/><path class="cls-1" d="M3909.15,224.94h8.91a10,10,0,0,0,6.29-2.13c1.57-1.58,2.37-4.21,2.89-10.3.52-6.61,1.05-20.87,1.05-39.92a25.68,25.68,0,0,0,10.74,6.09c-.26,15.33-.78,35.42-1.83,41.23-1,7.66-3.15,11.1-6.29,13.75-3.15,2.11-7.08,3.17-12.06,3.17h-11.8a22.89,22.89,0,0,1-12.83-4c-3.67-2.9-5-6.88-5-29.59v-176h-56.34V99.11c0,43.62-5.24,101.5-42.45,140.89a44.93,44.93,0,0,0-9.71-8.73c35.91-37.53,39.58-90.65,39.58-132.16v-84h81.5V206.42c0,9.79.53,15.61,1.84,16.92A10.12,10.12,0,0,0,3909.15,224.94Zm-105.88-97-8.64,11.89c-5.51-10-20.71-32.78-31.45-48.1V239.2h-12.32V94.63c-11,34.09-27,69.25-42.71,89.06a48.84,48.84,0,0,0-7.87-10.83c18.6-23.53,39-69,48.48-108.37h-44.28V52.06h46.38V0h12.32V52.06h40.62V64.49h-40.62v9.78C3772.09,85.11,3797.78,119.74,3803.27,127.93ZM3566.1,144.32h90.15V91.45H3566.1Zm0-64.77h90.15v-51H3566.1Zm0,129.78h90.15V156.2H3566.1ZM3553.78,16.39h115v221h-12.58V221.23H3566.1v16.38h-12.32ZM3501.11,0V57.62h40.09V70.05h-40.09V98.33c9.16,9.51,34.07,37.53,39.83,44.93l-8.65,10.57c-5.25-8.46-20.18-27.49-31.18-40.43V238.94h-12.33V99.11c-11.26,34.36-27.51,69-43.23,88.81a62.49,62.49,0,0,0-7.61-10.83c19.14-23,39.58-67.66,49.27-107H3443.7V57.62h45.08V0Zm-87.28,62.91v7.67c-3.93,109.68-7.34,146.16-16.51,157.26-4.71,5.82-9.43,7.4-17.29,8.2-7.87.26-22.54,0-37-1.06a27.65,27.65,0,0,0-3.93-12.42c16.25,1.32,31.45,1.32,36.69,1.32,5,.26,8.12-.27,10.49-3.71,7.59-8.19,11.53-44.13,15.2-144.83h-46.65c-3.67,64.75-14.95,127.4-54.26,163.86-1.83-2.9-6.81-6.87-10.21-8.44,37.73-33.58,49-93.84,52.41-155.42H3301.4V62.91h41.94c.77-19.56,1-39.12,1-58.15h12.31c-.25,19-.25,38.59-1.3,58.15ZM3299.56,199.82l-11.26,4.23c-1.57-5.81-3.67-12.68-6.29-20.36-76.8,15.86-85.18,18.25-90.42,21.42v-.27c-.78-2.9-2.88-9.52-4.45-12.42,3.67-1,7.59-9,11.53-19,3.92-9,16.25-42.82,23.32-75.32h-38.52V86.17H3298v11.9h-62.9c-7.59,30.92-18.34,64-29.61,89.32l72.86-14.53c-5-15.06-11.53-31.44-17.3-45.46l10.74-2.9C3282.26,148.8,3294.32,181.32,3299.56,199.82ZM3193.16,34.36V22.46H3293v11.9Zm-223,59.21V195.32c6.29,2.39,12.58,8.46,24.37,16.13,17.82,11.11,39,13.22,68.4,13.22,31.18,0,68.14-1.86,94.61-4.23a48.49,48.49,0,0,0-3.67,13.75c-16.78,1.05-63.16,2.64-91.2,2.64-32,0-53.72-3.17-72.59-15.07-10-6.61-19.4-15.86-25.69-15.86-9.18,0-22.28,14.8-36.43,33.57L2919,228.9c14.15-16.39,27.25-29.35,38.78-33.31V105.73H2919.3V93.57ZM2982.72,50l-8.66,9.79c-10.48-9.26-31.18-24.06-46.9-34.64l8.64-8.18C2951.27,27,2972,41.23,2982.72,50ZM3147.3,189.51l-11,6.08c-2.89-5.81-6.56-13-11-20.87-104.31,9-114.54,10-120.83,12.95-.78-3.18-2.62-9.79-4.44-13.22,3.92-.8,8.38-7.4,13.88-16.12,5.24-7.67,21.76-37.27,32.77-66.35h-57.41V79.82h166.68V92h-94.6c-11.8,28.29-26.73,57.35-41.93,79.56l99.59-7.66c-9.71-16.92-21-35.69-30.93-51.28l10.49-4.49C3115.85,134.27,3137.07,169.43,3147.3,189.51ZM3006.57,30.66V18.5h130.25V30.66Z"/><path class="cls-1" d="M2834.08,133.5v30.87h54.69v21.35h-54.69V238.2h-24.37V185.72h-65.57V164.37h65.57V133.5h-30.59a197.76,197.76,0,0,1-14,27.78,135,135,0,0,0-21-10.8c11.4-16.47,21-41.41,26.44-65.08l22.81,4.88c-1.82,7.21-3.9,14.92-6.22,22.13h22.54V81.8h24.37v30.61h44.84V133.5Zm-150.34-11.57h31.87V89.77h-31.87Zm0,53.24h31.87V142.24h-31.87Zm0-105.72h31.88V37.82h-31.88ZM2737.4,17V196.26h-53.66v21.61H2662V17ZM2889,74.08l-20.74,11.06c-2.33-4.37-5.18-9.53-8.81-15.17-79.84,6.69-90.46,7.71-97.46,10.8a162.4,162.4,0,0,0-7.78-22.38c4.41-.77,9.08-4.89,14-10.81,5.45-5.39,22.29-26.49,32.92-47.58l24.62,7.72c-10.62,16.71-23.58,34-36.54,47.58l57.54-4.12c-6.22-8.74-13.22-17.74-19.18-25.46L2846.52,16C2861.55,34,2880,58.9,2889,74.08Zm-392.44,38.07H2522a295.19,295.19,0,0,1-4.66,32.42c16.07,41.4,50.8,64.56,110.94,70.73-4.92,5.41-11.41,15.18-14,22.12-52.61-8.74-85.27-28.81-105.49-64.56C2494.26,205,2465.49,227.4,2401.47,240c-2.07-6.17-7.78-15.43-12.44-20.58C2480.52,203.47,2491.41,168,2496.59,112.15Zm-64.8,12.35,21,7.72c-6,17.49-14.78,37.56-27.47,50.15l-20.49-12.08C2417,159.22,2426.61,140.45,2431.79,124.5Zm142.83,57.87-17.89-10.8c8.56-12.35,20-32.93,25.66-47.85l21.26,12.1C2594.32,151.77,2583.43,170,2574.62,182.37Zm22.81-170.8v95.18H2412.61V85.4h161.74V67.65H2424V50.42h150.34V32.91H2412.61V11.57Z"/></svg>