<svg width="274" height="24" viewBox="0 0 274 24" xmlns="http://www.w3.org/2000/svg" xmlns:xlink="http://www.w3.org/1999/xlink"><defs><path d="M10.3101959.6193548c-.439721 1.0071134-1.2181999 2.4258065-1.8385918 3.3548387l1.5543009.697436c.6987712-.8006618 1.5277317-2.0393714 2.3048821-3.2L10.3101959.6193547zM4.5592826 4.0258065c-.2338093-.9290323-.9325805-2.2709678-1.6061109-3.251613l-1.761541.7225807c.6735304 1.032258 1.32182 2.4258065 1.5277316 3.329694l1.8399203-.8006617zm.9591498 7.4587262h2.201262v-3.2c1.1398207.8509512 2.4603122 1.9096774 3.0820326 2.5025641l1.2965792-1.7032258c-.5446695-.3612904-2.4363999-1.5483871-3.7050814-2.2961125h4.4304218V4.878081H7.7196945V.2064516h-2.201262v4.6716295H.3892394v1.9096774h4.3772832C3.523082 8.2845327 1.6844903 9.678081 0 10.3490488c.4662903.4645161 1.0096314 1.2638544 1.27001 1.8064516 1.4493523-.7741935 3.0036532-2.0393714 4.2484224-3.3813068v2.7103391zm3.7821322 3.8709677c-.5446696 1.1354839-1.27001 2.116129-2.1242112 2.9670802-.8555297-.4380479-1.709731-.8509512-2.5652607-1.2122415.3108601-.5425972.6482896-1.1354838.9843905-1.7548387h3.7050814zm1.709731 5.1864351c-.5446696-.3864351-1.27001-.7993383-2.0205912-1.2387097 1.3470608-1.470306 2.3819329-3.2767576 3.0302225-5.4961125l-1.2952507-.516129-.387911.1032258H6.5280638c.1819993-.4142266.3626702-.8006617.5181003-1.1870968l-2.1507805-.4129032c-.1554301.516129-.387911 1.0322581-.6469612 1.6H.8807705v1.9612903H3.264032c-.5446696.9290323-1.0627699 1.8580645-1.5795417 2.554177 1.2168715.4909843 2.5639322 1.083871 3.807373 1.7548387-1.5795417 1.0587262-3.419462 1.7813069-5.413484 2.245823.4131519.438048.8794421 1.2889992 1.0880107 1.8051282 2.3566921-.6180314 4.4809034-1.5735318 6.2676852-2.9670802.8302889.4645161 1.5556293.9555004 2.1255396 1.3935484l1.4506809-1.6zm8.652275-13.238048c-.3626702 2.632258-.9073398 4.9032258-1.657921 6.916129-.8555297-2.116129-1.5024908-4.4387096-1.9435403-6.916129h3.6014613zm3.910993 0v-2.245823h-7.0979741c.3374294-1.3935484.6217204-2.8651778.8289605-4.3606286L15.1019595.3877585c-.5951511 4.5154673-1.7602126 8.7993383-3.7821322 11.508354.5181003.3361456 1.4254401 1.083871 1.7881103 1.4980976.5699103-.8258065 1.1145798-1.7813069 1.5808701-2.8651778.5181003 2.2709677 1.2168715 4.3354838 2.0710727 6.1935483-1.3975423 2.3225807-3.3410827 4.0522747-6.0352042 5.3161291.3892394.4645161 1.0614414 1.4716294 1.27001 1.9612903 2.537363-1.3154673 4.4556625-2.9935484 5.9315841-5.0832093 1.2434408 1.9612904 2.7725009 3.6129033 4.6629027 4.7483871.3626702-.5677419 1.0362006-1.4451613 1.5808702-1.8580645-2.0471604-1.1354839-3.6798406-2.8651778-4.9485221-5.0580645 1.3204915-2.5806452 2.1242112-5.7038875 2.6688808-9.4451613h1.6831617zm6.3208236-2.2709677h16.916639v3.2516129h2.4603122v-5.523904h-8.9883759C39.9189638 1.9096773 39.2720027.8522746 38.6250415 0l-2.3580206.7490488c.4144803.5928867.8289605 1.3419355 1.1663899 2.0115798h-9.8970441v5.523904h2.3580205V5.0329199zm19.6107606 8.9290322h-9.8186649v-.6974359c2.2025905-1.2638544 4.3786118-2.9419355 5.9581534-4.5419355L44.0132846 7.483871l-.5446695.129694H31.6041182v2.2193548h9.4294255c-1.1663899.9806451-2.5905015 1.986435-3.9109931 2.632258v1.4967742h-9.8186648v2.2961125h9.8186648v4.7483871c0 .3612903-.15543.4909843-.6217203.4909843-.4928595.0251447-2.2796413.0251447-3.9123215-.0264682.387911.6193549.8807705 1.7032258 1.0362006 2.4006617 2.1242112 0 3.6267021-.0264681 4.6629027-.4129032 1.0614414-.3612903 1.3988708-1.032258 1.3988708-2.3741935v-4.8264682h9.8186649V13.961952zm9.4812355 4.0509512c3.5483228.4393714 7.9774161 1.4451613 10.4390568 2.3225807l1.0627698-1.7283706c-2.5652607-.8258064-6.9173032-1.8064516-10.3885752-2.1677419l-1.1132514 1.5735318zm2.4603122-3.2516129c2.0989704.4645162 4.7665227 1.3419355 6.2172035 2.0393714l1.0109599-1.5232423c-1.5024909-.6709678-4.1448024-1.4967742-6.2172036-1.9096775l-1.0109598 1.3935484zm.4928595-7.1993383h6.1653935c-.8807705.7993383-1.9435403 1.5483871-3.1604118 2.2193549-1.1916307-.645823-2.2025905-1.4200166-3.0049817-2.2193549zm8.1846562-1.9361455l-.3361009.1032258h-6.2172036c.3626702-.438048.6735304-.8774194.9591498-1.3419355l-1.9701096-.6709678c-1.2686815 1.9877585-3.4447028 3.9225807-5.5941548 5.1877585.4662903.3348222 1.2421123 1.032258 1.6061109 1.4451613.6735304-.4393714 1.3457323-.9806452 2.0205912-1.5483871.6987712.6961125 1.5011624 1.3419355 2.4085021 1.9348222-2.0989704.9038875-4.3520425 1.5748552-6.5014945 1.9877584.439721.438048.9060113 1.3935484 1.1384922 1.9612904 2.4616407-.567742 5.0521422-1.4967742 7.3835935-2.7354839 2.0724012 1.083871 4.4038526 1.9096774 6.7353039 2.3993383.2856194-.5412738.8807705-1.3684036 1.3470608-1.7799835-2.097642-.3877584-4.1966124-.9806451-6.1135836-1.8064516 1.8651611-1.2135649 3.419462-2.6335815 4.4822319-4.3103391l-1.3483893-.8258064zM56.3693125 20.7748552h16.864829V3.4580645h-16.864829v17.3167908zM54.0644304 1.2903226v22.6064516h2.3048821v-1.0057899h16.864829v1.0057899h2.4085021V1.2903226H54.0644304zM84.9950183.3096774c-1.4001993 3.767742-3.7050814 7.5354839-6.1401528 9.9361456.387911.5677419 1.0880106 1.8580645 1.32182 2.4509512.7240119-.7741936 1.4506808-1.6516129 2.149452-2.6057899v13.7806451h2.3314513V6.4780811c.9843906-1.7548388 1.8917304-3.6393714 2.5905015-5.4709678l-2.253072-.6974359zm18.0033207 9.7813069V7.8716294h-9.6114244c.2338094-.8522746.4662903-1.7548387.7000997-2.6071133h7.6678847V3.0716295h-7.0979744c.2338094-.8006618.4410495-1.6.6217204-2.3490489L92.8953836.3877585c-.2072401.8258064-.439721 1.7548387-.6735304 2.683871h-4.8183328V5.264516h4.2231817c-.2072401.8522746-.4410495 1.7548387-.7000996 2.6071134h-4.9990037v2.2193548h4.3772833c-.5699103 1.8580645-1.1132514 3.5612903-1.5795417 4.9283705h8.9618067c-1.0096313 1.1354839-2.253072 2.4258065-3.4181335 3.6393714-.7519096-.4909843-1.5543009-1.0071133-2.3314513-1.4451613l-1.6844902 1.4451613c2.4868814 1.521919 5.4400531 3.7928867 6.8641647 5.2896609l1.7363002-1.8064516c-.6735304-.6444996-1.6061109-1.4186932-2.6941215-2.1928867 1.9940219-2.0909843 4.1195615-4.3870968 5.6991035-6.2451613l-1.657921-1.0587262-.3626704.129694h-7.8485553c.2324809-.8522747.5181003-1.729694.775822-2.683871h10.2331447zm8.729326 6.0387097c-1.293922 1.7548387-3.392892 3.5612903-5.388243 4.7219189.623049.3612903 1.63268 1.1354839 2.098971 1.6 1.916971-1.3419355 4.196612-3.4315964 5.725672-5.4709677l-2.4364-.8509512zm13.289937-2.0129033c.725341.8258065 1.295251 1.6251448 1.709731 2.2961125l1.89173-1.1606286c-1.0362-1.6-3.186981-3.9741935-5.130521-5.7555004l-1.838592.9555004c.59648.5677419 1.191631 1.1870968 1.813351 1.8315964l-9.792095.645823c3.626702-1.7548387 7.331783-4.0006617 10.776486-6.6580645l-1.786782-1.5483872c-1.2182 1.00579-2.565261 1.9864351-3.887081 2.8903226l-5.801395.3096774c1.709731-1.2135649 3.392893-2.683871 4.973763-4.232258 3.315842-.3361456 6.501495-.8258065 9.040186-1.4200166l-1.7363-1.9612903c-4.221853 1.0071133-11.552308 1.678081-17.796081 1.9612903.25905.5425972.54467 1.4967742.59648 2.089661 2.097642-.0767577 4.300232-.2051283 6.553304-.3864352-1.554301 1.5483871-3.185652 2.813565-3.807373 3.2264682-.778479.516129-1.347061.9025641-1.916971.9806452.232481.5677419.56991 1.6516129.672202 2.1148056.54467-.2051282 1.37363-.3348222 6.088343-.6444996-1.994022 1.2135649-3.651943 2.0909843-4.507473 2.4774194-1.58087.8006617-2.668881 1.2651778-3.574892 1.3935483.25905.645823.59648 1.7548388.72534 2.167742.750582-.2832093 1.813352-.438048 8.367985-.954177v6.2451613c0 .3096774-.104949.386435-.518101.4129032-.441049.0251447-1.916971.0251447-3.36898-.0516129.389239.6444996.778479 1.6767576.90734 2.3477254 1.89173 0 3.264031-.0251448 4.196612-.3864351.95915-.3612903 1.243441-1.0322581 1.243441-2.2709677v-6.4780811l5.906343-.438048zm-4.014613 3.1483871c2.071073 1.5735319 4.636333 3.7928867 5.853205 5.2129033l2.09897-1.4200166c-1.34706-1.4451613-3.962803-3.5864351-6.009963-5.0580645l-1.942212 1.2651778zm34.789771-4.8c-.725341-1.5232423-2.383261-3.9225806-3.755563-5.7038875l-1.865161.9555004c.491531.6444996.983062 1.3935484 1.501162 2.1412738l-6.215875.5425972c1.061442-1.3167907 2.330123-3.0451613 3.367652-4.4651778h6.812355v-2.167742h-7.201594l1.631351-.4896608c-.284291-.8006618-.906011-2.1425972-1.449352-3.1232424l-2.254401.5425972c.439721.9793218.957822 2.2193548 1.243441 3.070306h-5.983394v2.167742h4.352042c-1.114579 1.5232423-2.642311 3.5096774-3.212221 4.0258064-.49286.4909843-1.2182.6974359-1.736301.8006617.23381.5412738.673531 1.7548387.777151 2.3225807.751909-.3096774 1.916971-.4645162 11.010295-1.3419355.413152.6709677.725341 1.2903226.957822 1.8315963l2.020591-1.1090157zm-19.273331 1.4703061c1.813351-2.167742 3.549651-4.6967742 5.000332-7.2258065l-2.098971-1.2903226c-.46629.9555005-.98439 1.8845327-1.5543 2.761952l-2.590502.2580646c1.52906-2.116129 3.004982-4.7483871 4.092992-7.2522746L136.908668.0767577c-1.01096 3.0200165-2.797741 6.2200165-3.394221 7.0206782-.543341.8509512-1.036201 1.4186931-1.527732 1.548387.310861.6709678.724012 1.9096775.854202 2.4258065.41448-.2064516.98439-.3612903 3.600132-.6709677-.957821 1.3670802-1.812022 2.4774194-2.226502 2.9154673-.80372.9555004-1.4002 1.5483871-1.995351 1.6780811.28562.5928867.673531 1.7799834.80372 2.2444996.56991-.3612903 1.554301-.6444996 7.821986-2.038048-.10362-.516129-.10362-1.4716294-.05181-2.1425972l-4.273663.8774194zm4.248422 3.6909843c-3.135171.9806451-6.347393 2.0380479-8.496845 2.6057899l.59648 2.3993383c2.356692-.8244831 5.440053-1.9083541 8.314845-2.9670803l-.41448-2.0380479zm3.419462-4.7232424c-.181999 4.7483871-.648289 7.4587262-4.714713 9.0322581.518101.4645161 1.191631 1.3684036 1.477251 1.9877584 4.636333-2.0129032 5.388243-5.4458229 5.595483-11.0200165h-2.358021zm7.719695 8.4909843c-.466291 0-.543341-.1032258-.543341-.8258065v-7.6903225h-2.358021v7.6903225c0 2.167742.491531 2.8638545 2.486881 2.8638545h2.020592c1.761541 0 2.30621-1.0322581 2.486881-4.7483871-.59648-.1799835-1.554301-.5412738-2.045832-.954177-.078379 3.1219189-.181999 3.6645161-.64829 3.6645161h-1.39887z" id="a"/><path d="M0 21.7815515h3.41251v-8.7714528h9.2764354V9.9915374H3.41251V2.9875317h10.236282V0H0v21.7815515zm17.176134 0h3.4112618v-7.7238928h3.648415c2.3802695 0 4.2774952-.5833569 5.6916773-1.7513117 1.499058-1.2411848 2.2492111-3.002426 2.2492111-5.2849648 0-2.3036389-.7501531-4.0661213-2.2492111-5.2849647C28.513306.5796333 26.6160803 0 24.2358108 0H17.176134v21.7815515zm3.4112618-10.6952892V2.9875317h3.5073713c3.0705101 0 4.6070133 1.3442031 4.6070133 4.0338505 0 2.7107476-1.5365032 4.0648801-4.6070133 4.0648801h-3.5073713zM43.2355282 22h.4243795L53 0h-3.3176487l-4.8591447 11.6969252c-.2820875.6143865-.5866421 1.4484627-.9111676 2.5009874-.2521313.8551763-.378197 1.3131734-.378197 1.3764739 0-.0422003-.1410437-.5113682-.4243794-1.4075036-.3245255-1.0525246-.6228393-1.8766713-.8961896-2.4699577L37.2767416 0h-3.6321888l9.5909754 22z" id="b"/><path d="M36.630615 21.7175838V.000495H40v21.7170888h-3.369385zM25.1592775 22c-1.516721 0-2.8231664-.3588988-3.9180921-1.0754587-.9630369-.6237414-1.7195311-1.486336-2.2744593-2.5890216l2.7584662-1.6992c.4292607.769776.8672309 1.3353509 1.3176436 1.6992.5524397.4269658 1.2069067.6398299 1.9596681.6398299 2.0156587 0 3.0247323-1.1274372 3.0247323-3.3835491V.0007425h3.4017351v15.6541746c0 2.0890384-.5922553 3.6842816-1.7730331 4.7857296C28.5697222 21.4802156 27.0704205 22 25.1592775 22zM0 21.7183263V0h6.0034279c3.4900756 0 6.3070209.9937783 8.4483472 2.9788599C16.5831475 4.9750796 17.6507 7.6049413 17.6507 10.8672075c0 3.253603-1.0563544 5.8686137-3.1665749 7.842557-2.1438147 2.0061204-4.9694696 3.0085618-8.4806972 3.0085618H0zm3.4022328-2.9621525h2.3827076c2.7373143 0 4.8326039-.7375988 6.2846247-2.2127966 1.3686571-1.382379 2.0529857-3.2746419 2.0529857-5.675551 0-2.4108097-.6843286-4.3080229-2.0529857-5.690402-1.4520208-1.465297-3.5473104-2.1979456-6.2846247-2.1979456H3.4022328v15.7766952z" id="c"/></defs><g fill="#FFF" fill-rule="evenodd"><use xlink:href="#a" transform="translate(117.833333)"/><use xlink:href="#b" transform="translate(54 1)"/><use xlink:href="#c" transform="translate(0 1)"/></g></svg>