<svg width="355" height="40" viewBox="0 0 355 40" xmlns="http://www.w3.org/2000/svg" xmlns:xlink="http://www.w3.org/1999/xlink"><defs><path d="M14.899 21.343c-.689-1.17-3.703-5.887-4.909-7.532v-1.732h4.092V8.356H9.99V.218H6.245v8.138H.99v3.723H6.2C4.995 17.662 2.584 24.159 0 27.577c.689 1.039 1.594 2.857 1.98 3.983 1.551-2.338 3.06-5.888 4.265-9.742v18.095H9.99V18.961c.992 1.991 1.98 4.027 2.456 5.326l2.453-2.944zm5.47 14.113h12.229v-3.204h-12.23v3.204zm-.002-18.053h12.229v-3.03h-12.23v3.03zm0 11.948h12.229v-3.117h-12.23v3.117zm0-5.974h12.229v-3.075h-12.23v3.075zm16.062 12.079V11.3H26.267c.214-.997.475-2.036.733-3.161h11.755V4.762h-11.11c.344-1.559.603-3.115.861-4.589L24.458 0c-.128 1.472-.344 3.075-.558 4.762h-8.87v3.377h8.395c-.214 1.125-.386 2.208-.603 3.16h-6.114v24.157H12.96v3.418h27.086v-3.418H36.43zm18-35.152C52.06 6.667 48.099 12.9 43.922 16.885c.733.953 1.853 3.115 2.239 4.067a45.947 45.947 0 0 0 4.006-4.804v23.679h3.79V10.303a78.84 78.84 0 0 0 4.219-8.787L54.429.304zm8.654 12.379h14.512V5.714H63.083v6.969zm20.755 11.95v-3.636H72.212v-4.72H81.6V2.165H59.338v14.112h8.87v4.72H56.323v3.636H66.1c-2.8 4.243-7.02 8.18-11.154 10.303.906.78 2.11 2.207 2.756 3.204 3.832-2.294 7.623-6.148 10.507-10.477v12.295h4.004V27.446c2.713 4.329 6.373 8.356 9.992 10.78.603-.997 1.936-2.424 2.798-3.203-3.918-2.21-8.01-6.192-10.635-10.39h9.47zm31.348 10.303c-2.023 0-2.41-.26-2.41-1.86V19.394h14.856v-3.938h-18.689c.389-2.902.517-5.757.647-8.572h15.63V2.988h-33.5v3.896h13.779c-.087 2.815-.217 5.67-.645 8.572H89.135v3.938h14.986c-1.765 7.013-5.857 13.42-15.63 17.143 1.033.866 2.153 2.337 2.711 3.376 10.896-4.457 15.244-12.205 17.01-20.52h.387v13.725c0 4.458 1.248 5.756 6.073 5.756h7.32c4.348 0 5.512-1.86 6.028-8.917-1.121-.26-2.93-.953-3.833-1.687-.259 5.714-.559 6.666-2.498 6.666h-6.503zM149.679.304c-.128 6.927.344 27.1-17.269 36.277 1.336.866 2.628 2.165 3.317 3.204 9.732-5.413 14.296-14.157 16.45-22.296 2.283 7.75 6.975 17.274 17.095 22.08.56-1.083 1.765-2.513 2.929-3.42-15.03-6.712-17.655-23.983-18.26-29.396.216-2.553.26-4.804.302-6.449h-4.564zm57.29 21.732c-2.152-1.732-6.07-4.027-9.645-5.888 3.059-2.468 6.46-5.714 9.215-8.658l-3.617-1.949c-1.98 2.469-4.95 5.5-7.75 7.965a217.141 217.141 0 0 1-.26-10.993h-25.791v4.198h21.744c.43 19.74 2.584 32.121 11.843 32.163 3.228-.042 4.434-2.206 4.909-9.177-.948-.433-2.111-1.514-3.059-2.424-.172 4.72-.602 7.359-1.722 7.403-4.22.043-6.331-5.845-7.276-15.542 3.53 1.95 7.318 4.33 9.343 6.147l2.067-3.245zm22.436-.91c-.86-1.168-4.694-5.93-6.158-7.62v-1.298h5.47v-3.81h-5.47V.173h-4.004v8.225h-6.761v3.81h6.372c-1.42 5.63-4.264 12.121-7.106 15.93.647.953 1.639 2.47 2.111 3.637 1.981-2.64 3.876-6.58 5.384-10.778v18.916h4.004V18.615c1.464 2.209 3.1 4.848 3.961 6.409l2.197-3.898zm17.18 14.545c-.3 0-.472-.087-.647-.26-.128-.173-.17-.866-.17-2.206V2.642h-14.857V16.45c0 6.538-.558 15.065-6.286 20.866.947.52 2.583 1.905 3.23 2.684 6.115-6.234 7.104-16.32 7.104-23.55V6.451h6.804v26.667c0 3.68.302 4.589.991 5.324.731.65 1.809.954 2.626.954h2.195c.947 0 1.808-.217 2.455-.695.603-.475 1.034-1.212 1.206-2.466.258-1.168.43-4.243.43-6.622-1.033-.391-2.197-1.04-3.014-1.69 0 2.726-.044 4.89-.13 5.888-.042.952-.128 1.34-.342 1.6-.172.173-.433.26-.733.26h-.861z" id="a"/><path d="M11.863 39.49V5.415H0V0h29.858v5.416H18.023V39.49h-6.16zm29.19 0V5.472h-6.82V0h13.039v39.49h-6.22zM68.66 40c-4.24 0-7.757-1.314-10.546-3.94-2.75-2.59-4.126-5.783-4.126-9.582 0-3.195 1.212-6.559 3.64-10.092L69.005 0h6.992l-7.279 10.349c-.535.792-1.308 1.719-2.32 2.777l-.546.54-.83.792c1.606-.925 3.305-1.389 5.1-1.389 3.744 0 6.878 1.247 9.401 3.742 2.539 2.514 3.81 5.66 3.81 9.44 0 3.875-1.355 7.115-4.07 9.723C76.494 38.66 72.96 40 68.662 40zm0-5.5c2.523 0 4.566-.823 6.133-2.466C76.266 30.484 77 28.558 77 26.251c0-2.324-.725-4.27-2.177-5.84-1.549-1.682-3.603-2.522-6.162-2.522-2.502 0-4.538.83-6.103 2.494-1.49 1.568-2.236 3.526-2.236 5.868 0 2.286.746 4.215 2.236 5.783 1.565 1.643 3.6 2.466 6.103 2.466z" id="b"/></defs><g fill="none" fill-rule="evenodd"><path d="M118.232 21.343c-.689-1.17-3.703-5.887-4.909-7.532v-1.732h4.092V8.356h-4.092V.218h-3.745v8.138h-5.253v3.723h5.21c-1.207 5.583-3.618 12.08-6.202 15.498.69 1.039 1.595 2.857 1.981 3.983 1.55-2.338 3.059-5.888 4.264-9.742v18.095h3.745V18.961c.992 1.991 1.981 4.027 2.456 5.326l2.453-2.944zm5.47 14.113h12.23v-3.204h-12.23v3.204zm-.002-18.053h12.23v-3.03H123.7v3.03zm0 11.948h12.23v-3.117H123.7v3.117zm0-5.974h12.23v-3.075H123.7v3.075zm16.063 12.079V11.3H129.6c.215-.997.475-2.036.733-3.161h11.755V4.762h-11.11c.345-1.559.603-3.115.861-4.589L127.792 0c-.128 1.472-.345 3.075-.559 4.762h-8.87v3.377h8.395c-.214 1.125-.386 2.208-.603 3.16h-6.114v24.157h-3.748v3.418h27.087v-3.418h-3.617zM157.762.304c-2.367 6.363-6.329 12.596-10.507 16.581.733.953 1.853 3.115 2.24 4.067a45.947 45.947 0 0 0 4.005-4.804v23.679h3.79V10.303a78.84 78.84 0 0 0 4.22-8.787L157.761.304zm8.654 12.379h14.513V5.714h-14.513v6.969zm20.755 11.95v-3.636h-11.626v-4.72h9.39V2.165H162.67v14.112h8.87v4.72h-11.884v3.636h9.775c-2.8 4.243-7.02 8.18-11.153 10.303.905.78 2.109 2.207 2.756 3.204 3.83-2.294 7.622-6.148 10.506-10.477v12.295h4.004V27.446c2.714 4.329 6.373 8.356 9.992 10.78.603-.997 1.937-2.424 2.798-3.203-3.917-2.21-8.01-6.192-10.635-10.39h9.471zm31.348 10.303c-2.022 0-2.409-.26-2.409-1.86V19.394h14.855v-3.938h-18.688c.388-2.902.516-5.757.647-8.572h15.63V2.988h-33.502v3.896h13.78c-.086 2.815-.217 5.67-.645 8.572h-15.718v3.938h14.985c-1.764 7.013-5.856 13.42-15.63 17.143 1.033.866 2.153 2.337 2.712 3.376 10.895-4.457 15.243-12.205 17.01-20.52h.386v13.725c0 4.458 1.248 5.756 6.073 5.756h7.32c4.348 0 5.512-1.86 6.029-8.917-1.122-.26-2.93-.953-3.834-1.687-.258 5.714-.559 6.666-2.497 6.666h-6.504zM253.012.304c-.128 6.927.345 27.1-17.268 36.277 1.336.866 2.627 2.165 3.316 3.204 9.732-5.413 14.297-14.157 16.45-22.296 2.283 7.75 6.975 17.274 17.096 22.08.558-1.083 1.764-2.513 2.928-3.42-15.03-6.712-17.655-23.983-18.26-29.396.216-2.553.26-4.804.302-6.449h-4.564zm57.291 21.732c-2.153-1.732-6.07-4.027-9.645-5.888 3.058-2.468 6.459-5.714 9.214-8.658l-3.617-1.949c-1.98 2.469-4.95 5.5-7.75 7.965a217.141 217.141 0 0 1-.259-10.993h-25.792v4.198h21.744c.431 19.74 2.584 32.121 11.843 32.163 3.229-.042 4.434-2.206 4.91-9.177-.948-.433-2.112-1.514-3.06-2.424-.172 4.72-.602 7.359-1.722 7.403-4.22.043-6.33-5.845-7.276-15.542 3.531 1.95 7.318 4.33 9.343 6.147l2.067-3.245zm22.436-.91c-.861-1.168-4.695-5.93-6.159-7.62v-1.298h5.47v-3.81h-5.47V.173h-4.004v8.225h-6.761v3.81h6.373c-1.42 5.63-4.264 12.121-7.106 15.93.647.953 1.638 2.47 2.11 3.637 1.982-2.64 3.876-6.58 5.384-10.778v18.916h4.004V18.615c1.464 2.209 3.1 4.848 3.962 6.409l2.197-3.898zm17.18 14.545c-.3 0-.473-.087-.647-.26-.128-.173-.17-.866-.17-2.206V2.642h-14.857V16.45c0 6.538-.559 15.065-6.287 20.866.947.52 2.584 1.905 3.23 2.684 6.115-6.234 7.104-16.32 7.104-23.55V6.451h6.804v26.667c0 3.68.303 4.589.992 5.324.73.65 1.808.954 2.625.954h2.195c.947 0 1.809-.217 2.456-.695.603-.475 1.033-1.212 1.205-2.466.259-1.168.431-4.243.431-6.622-1.033-.391-2.197-1.04-3.014-1.69 0 2.726-.044 4.89-.13 5.888-.042.952-.129 1.34-.343 1.6-.172.173-.433.26-.733.26h-.861z" fill="#5E6262"/><use fill="#FFF" xlink:href="#a" transform="translate(103.333)"/><path d="M11.863 39.49V5.415H0V0h29.858v5.416H18.023V39.49h-6.16zm29.19 0V5.472h-6.82V0h13.039v39.49h-6.22zM68.66 40c-4.24 0-7.757-1.314-10.546-3.94-2.75-2.59-4.126-5.783-4.126-9.582 0-3.195 1.212-6.559 3.64-10.092L69.005 0h6.992l-7.279 10.349c-.535.792-1.308 1.719-2.32 2.777l-.546.54-.83.792c1.606-.925 3.305-1.389 5.1-1.389 3.744 0 6.878 1.247 9.401 3.742 2.539 2.514 3.81 5.66 3.81 9.44 0 3.875-1.355 7.115-4.07 9.723C76.494 38.66 72.96 40 68.662 40zm0-5.5c2.523 0 4.566-.823 6.133-2.466C76.266 30.484 77 28.558 77 26.251c0-2.324-.725-4.27-2.177-5.84-1.549-1.682-3.603-2.522-6.162-2.522-2.502 0-4.538.83-6.103 2.494-1.49 1.568-2.236 3.526-2.236 5.868 0 2.286.746 4.215 2.236 5.783 1.565 1.643 3.6 2.466 6.103 2.466z" fill="#5F6162"/><use fill="#FFF" xlink:href="#b"/></g></svg>